#N canvas 0 0 1920 1052 12;
#X obj -15 555 + 60;
#X obj 8 683 s root;
#X listbox 133 123 5 0 0 0 - - - 24;
#X floatatom -92 240 5 0 0 0 - - - 0;
#X floatatom -17 584 5 0 0 0 - - - 0;
#X obj 196 277 sel 0 1 2 3 4 5 6 7 8 9 10 11;
#X msg 201 309 0;
#X msg 222 339 1;
#X msg 249 366 2;
#X msg 270 396 3;
#X msg 291 423 4;
#X msg 312 453 5;
#X msg 339 480 6;
#X msg 360 510 7;
#X msg 384 538 8;
#X msg 405 568 9;
#X msg 432 595 10;
#X msg 453 625 11;
#X floatatom -21 237 5 0 0 0 - - - 0;
#X obj -48 305 +;
#X obj -22 283 t b f;
#X floatatom -45 338 5 0 0 0 - - - 0;
#X obj 176 224 r key;
#X msg 35 500 12;
#X obj 37 588 t b f;
#X floatatom 9 656 5 0 0 0 - - - 0;
#X msg 80 525 0;
#X msg 102 562 -12;
#X obj -92 637 s root_chords;
#X obj 151 461 sel 0 1 2;
#X obj 147 433 r octave;
#X obj 10 628 +;
#X obj -53 33 scale_loader1;
#X floatatom -19 -281 5 0 100 0 - - - 0;
#X floatatom 13 -254 5 -1 100 0 - - - 0;
#X floatatom -50 -155 5 0 100 0 - - - 0;
#X text -9 -155 index;
#N canvas 701 109 450 300 (subpatch) 0;
#X array array-1 7 float 3;
#A 0 0.14 0.14 0.18 0.14 0.05 0.18 0.14;
#X coords 0 1 7 0 220 100 1 0 0;
#X restore 800 -411 graph;
#X floatatom -50 -314 8 -1 100 0 - - - 0;
#X obj -47 -344 hsl 162 19 0 1 0 0 empty empty empty -2 -10 0 12 #dfdfdf #000000 #000000 0 1;
#X obj -49 -398 random 100;
#X obj -49 -374 / 100;
#X obj -50 -199 array quantile array-1, f 14;
#X msg 88 -232 symbol array-\$1;
#N canvas 701 109 450 300 (subpatch) 0;
#X array array-2 7 float 3;
#A 0 0.05 0 0.1 0.1 0.47 0.14 0.14;
#X coords 0 1 7 0 220 100 1 0 0;
#X restore 802 -288 graph;
#X obj -50 -127 t f f;
#X floatatom -50 -76 5 0 0 0 - - - 0;
#N canvas 701 109 450 300 (subpatch) 0;
#X array array-3 7 float 3;
#A 0 0.14 0.14 0.1 0.21 0.09 0.18 0.14;
#X coords 0 1 7 0 220 100 1 0 0;
#X restore 802 -165 graph;
#N canvas 701 109 450 300 (subpatch) 0;
#X array array-4 7 float 3;
#A 0 0.18 0.14 0.14 0 0.4 0 0.14;
#X coords 0 1 7 0 220 100 1 0 0;
#X restore 804 -42 graph;
#N canvas 701 109 450 300 (subpatch) 0;
#X array array-5 7 float 3;
#A 0 0.5 0 0 0 0.1 0.3 0.1;
#X coords 0 1 7 0 220 100 1 0 0;
#X restore 806 77 graph;
#N canvas 701 109 450 300 (subpatch) 0;
#X array array-6 7 float 3;
#A 0 0.18 0.14 0.18 0.14 0.05 0.14 0.14;
#X coords 0 1 7 0 220 100 1 0 0;
#X restore 808 200 graph;
#N canvas 701 109 450 300 (subpatch) 0;
#X array array-7 7 float 3;
#A 0 0.5 0 0 0 0.1 0.3 0.1;
#X coords 0 1 7 0 220 100 1 0 0;
#X restore 1037 -407 graph;
#X obj 53 -111 + 1;
#X floatatom 53 -81 5 0 0 0 - - - 0;
#X obj 454 -180 loadbang;
#X obj -50 -101 + 1;
#X obj -50 -53 - 1;
#X obj 351 37 sel 1 2 3 4 5 6 7;
#X msg 350 66 symbol I;
#X msg 371 96 symbol II;
#X msg 398 123 symbol III;
#X msg 419 153 symbol IV;
#X msg 440 180 symbol V;
#X msg 461 210 symbol VI;
#X msg 488 237 symbol VII;
#X msg 455 -147 \; array-1 0 0.14 0.14 0.18 0.14 0.05 0.18 0.14 \; array-2 0 0.05 0 0.1 0.1 0.47 0.14 0.14 \; array-3 0 0.14 0.14 0.1 0.21 0.09 0.18 0.14 \; array-4 0 0.18 0.14 0.14 0 0.4 0 0.14 \; array-5 0 0.5 0 0 0 0.1 0.3 0.1 \; array-6 0 0.18 0.14 0.18 0.14 0.05 0.14 0.14 \; array-7 0 0.5 0 0 0 0.1 0.3 0.1 \;;
#X obj -48 -424 r zero;
#X obj 68 -22 s scale_info;
#X floatatom -52 -16 5 0 0 0 - - - 0;
#X obj -69 189 s key_info;
#X obj -60 263 s rt;
#X msg 127 613 12;
#X obj 129 701 t b f;
#X floatatom 101 769 5 0 0 0 - - - 0;
#X msg 172 638 0;
#X msg 194 675 -12;
#X obj 243 574 sel 0 1 2;
#X obj 102 741 +;
#X obj 239 546 r octave-2;
#X obj 100 796 s root-2;
#X connect 0 0 4 0;
#X connect 3 0 19 0;
#X connect 3 0 70 0;
#X connect 4 0 28 0;
#X connect 4 0 31 0;
#X connect 4 0 77 0;
#X connect 5 0 6 0;
#X connect 5 1 7 0;
#X connect 5 2 8 0;
#X connect 5 3 9 0;
#X connect 5 4 10 0;
#X connect 5 5 11 0;
#X connect 5 6 12 0;
#X connect 5 7 13 0;
#X connect 5 8 14 0;
#X connect 5 9 15 0;
#X connect 5 10 16 0;
#X connect 5 11 17 0;
#X connect 6 0 18 0;
#X connect 7 0 18 0;
#X connect 8 0 18 0;
#X connect 9 0 18 0;
#X connect 10 0 18 0;
#X connect 11 0 18 0;
#X connect 12 0 18 0;
#X connect 13 0 18 0;
#X connect 14 0 18 0;
#X connect 15 0 18 0;
#X connect 16 0 18 0;
#X connect 17 0 18 0;
#X connect 18 0 20 0;
#X connect 18 0 69 0;
#X connect 19 0 21 0;
#X connect 20 0 19 0;
#X connect 20 1 19 1;
#X connect 21 0 0 0;
#X connect 22 0 5 0;
#X connect 23 0 24 0;
#X connect 24 0 31 0;
#X connect 24 1 31 1;
#X connect 25 0 1 0;
#X connect 26 0 24 0;
#X connect 27 0 24 0;
#X connect 29 0 23 0;
#X connect 29 1 26 0;
#X connect 29 2 27 0;
#X connect 30 0 29 0;
#X connect 31 0 25 0;
#X connect 32 0 3 0;
#X connect 33 0 42 1;
#X connect 34 0 42 2;
#X connect 35 0 45 0;
#X connect 38 0 42 0;
#X connect 39 0 38 0;
#X connect 40 0 41 0;
#X connect 41 0 39 0;
#X connect 42 0 35 0;
#X connect 43 0 42 3;
#X connect 45 0 55 0;
#X connect 45 1 52 0;
#X connect 46 0 56 0;
#X connect 52 0 43 0;
#X connect 52 0 53 0;
#X connect 53 0 57 0;
#X connect 54 0 65 0;
#X connect 55 0 46 0;
#X connect 56 0 68 0;
#X connect 57 0 58 0;
#X connect 57 1 59 0;
#X connect 57 2 60 0;
#X connect 57 3 61 0;
#X connect 57 4 62 0;
#X connect 57 5 63 0;
#X connect 57 6 64 0;
#X connect 58 0 2 0;
#X connect 59 0 2 0;
#X connect 60 0 2 0;
#X connect 61 0 2 0;
#X connect 62 0 2 0;
#X connect 63 0 2 0;
#X connect 64 0 2 0;
#X connect 66 0 40 0;
#X connect 68 0 67 0;
#X connect 68 0 32 0;
#X connect 71 0 72 0;
#X connect 72 0 77 0;
#X connect 72 1 77 1;
#X connect 73 0 79 0;
#X connect 74 0 72 0;
#X connect 75 0 72 0;
#X connect 76 0 71 0;
#X connect 76 1 74 0;
#X connect 76 2 75 0;
#X connect 77 0 73 0;
#X connect 78 0 76 0;
#X coords 0 -1 1 1 140 60 1 100 100;
