#N canvas 471 37 1468 833 12;
#X obj 652 75 random 9;
#X floatatom 640 202 5 0 0 0 - - - 0;
#X obj 591 260 bng 19 250 50 0 empty empty empty 0 -10 0 12 #fcfcfc #000000 #000000;
#X obj 649 262 bng 19 250 50 0 empty empty empty 0 -10 0 12 #fcfcfc #000000 #000000;
#X obj 704 262 bng 19 250 50 0 empty empty empty 0 -10 0 12 #fcfcfc #000000 #000000;
#X obj 753 263 bng 19 250 50 0 empty empty empty 0 -10 0 12 #fcfcfc #000000 #000000;
#X text 525 262 DEVISION;
#X obj 421 588 bng 19 250 50 0 empty empty empty 0 -10 0 12 #fcfcfc #000000 #000000;
#X floatatom 530 354 5 0 0 0 - - - 0;
#X floatatom 583 353 5 0 0 0 - - - 0;
#X obj 583 381 t b f;
#X floatatom 554 460 5 0 0 0 - - - 0;
#X obj 559 420 /;
#X msg 581 290 1;
#X msg 649 288 2;
#X msg 704 287 4;
#X msg 756 288 3;
#X obj 226 232 tgl 19 0 empty empty empty 0 -10 0 12 #fcfcfc #000000 #000000 0 1;
#X obj 652 48 bng 19 250 50 0 empty empty empty 0 -10 0 12 #fcfcfc #000000 #000000;
#X obj 647 132 bng 19 250 50 0 empty empty empty 0 -10 0 12 #fcfcfc #000000 #000000;
#X obj 652 99 moses 4;
#X obj 381 304 bng 19 250 50 0 empty empty empty 0 -10 0 12 #fcfcfc #000000 #000000;
#X text 381 243 tempo;
#X obj 382 266 metro;
#X obj 435 532 metro;
#X text 341 531 note divison;
#X obj 155 585 f;
#X obj 192 585 + 1;
#X floatatom 419 729 5 0 0 0 - - - 0;
#X obj 95 764 s zero;
#X obj 481 937 bng 19 250 50 0 empty empty empty 0 -10 0 12 #00ff04 #000000 #000000;
#X obj 603 936 bng 19 250 50 0 empty empty empty 0 -10 0 12 #00ff04 #000000 #000000;
#X obj 732 937 bng 19 250 50 0 empty empty empty 0 -10 0 12 #00ff04 #000000 #000000;
#X obj 871 937 bng 19 250 50 0 empty empty empty 0 -10 0 12 #00ff04 #0f4710 #000000;
#X obj 620 1078 f;
#X obj 733 1078 f;
#X obj 869 1093 f;
#X floatatom 896 937 5 0 0 0 - - - 0;
#X floatatom 758 937 5 0 0 0 - - - 0;
#X floatatom 628 936 5 0 0 0 - - - 0;
#X obj 483 998 f;
#X floatatom 507 937 5 0 0 0 - - - 0;
#X obj 480 784 random 9;
#X obj 551 936 bng 19 250 50 0 empty empty empty 0 -10 0 12 #ff0400 #000000 #000000;
#X floatatom 414 811 5 0 0 0 - - - 0;
#X obj 615 790 random 9;
#X obj 673 936 bng 19 250 50 0 empty empty empty 0 -10 0 12 #ff0400 #000000 #000000;
#X obj 741 791 random 9;
#X obj 876 788 random 9;
#X obj 800 936 bng 19 250 50 0 empty empty empty 0 -10 0 12 #ff0400 #000000 #000000;
#X obj 937 937 bng 19 250 50 0 empty empty empty 0 -10 0 12 #ff0400 #000000 #000000;
#X msg 1085 1093 stop;
#X obj 480 809 moses 1;
#X obj 615 815 moses 1;
#X obj 741 816 moses 1;
#X obj 876 813 moses 1;
#X floatatom 1033 897 5 0 0 0 - - - 0;
#X obj 1029 870 r %-rests;
#X obj 701 1307 noteout 1;
#X obj 678 1207 +;
#X obj 680 1271 makenote, f 21;
#X floatatom 760 1246 5 0 0 0 - - - 0;
#X floatatom 778 1305 5 0 0 0 - - - 0;
#X obj 749 1220 + 60;
#X obj 749 1196 random 40;
#X obj 442 647 f;
#X obj 479 647 + 1;
#X obj 605 1176 r root;
#X floatatom 605 1200 5 0 0 0 - - - 0;
#X floatatom 343 1575 5 0 0 0 - - - 0;
#X floatatom 343 1520 5 0 0 0 - - - 0;
#X obj 338 1406 random 9;
#X obj 344 1490 random 8;
#N canvas 235 59 1218 804 scale_loader 0;
#X obj 651 563 r p1;
#X obj 706 501 r p2;
#X obj 758 450 r p3;
#X obj 809 382 r p4;
#X obj 860 332 r p5;
#X obj 903 291 r p6;
#X obj 918 250 r p7;
#X obj 615 564 f;
#X obj 676 501 f;
#X obj 727 451 f;
#X obj 778 382 f;
#X obj 830 332 f;
#X obj 871 290 f;
#X obj 887 250 f;
#X obj 498 276 bng 19 250 50 0 empty load empty 0 -10 0 12 #fcfcfc #000000 #000000;
#X obj 582 564 f;
#X obj 643 501 f;
#X obj 694 451 f;
#X obj 745 382 f;
#X obj 797 332 f;
#X obj 838 290 f;
#X obj 854 250 f;
#X floatatom 1015 362 2 0 0 0 - - - 0;
#X floatatom 982 362 2 0 0 0 - - - 0;
#X obj 592 119 inlet;
#X obj 597 686 outlet;
#X obj 591 201 sel 0 1 2 3 4 5 6 7, f 50;
#X obj 928 226 f;
#X obj 895 226 f;
#X obj 959 226 r p8;
#X floatatom 1015 262 2 0 0 0 - - - 0;
#X floatatom 982 262 2 0 0 0 - - - 0;
#X floatatom 1016 293 2 0 0 0 - - - 0;
#X floatatom 983 293 2 0 0 0 - - - 0;
#X floatatom 1013 328 2 0 0 0 - - - 0;
#X floatatom 980 328 2 0 0 0 - - - 0;
#X floatatom 1008 565 2 0 0 0 - - - 0;
#X floatatom 975 565 2 0 0 0 - - - 0;
#X floatatom 1012 425 2 0 0 0 - - - 0;
#X floatatom 979 425 2 0 0 0 - - - 0;
#X floatatom 1013 456 2 0 0 0 - - - 0;
#X floatatom 980 456 2 0 0 0 - - - 0;
#X floatatom 1006 531 2 0 0 0 - - - 0;
#X floatatom 973 531 2 0 0 0 - - - 0;
#X floatatom 596 153 5 0 0 0 - - - 0;
#X connect 0 0 7 1;
#X connect 1 0 8 1;
#X connect 2 0 9 1;
#X connect 3 0 10 1;
#X connect 4 0 11 1;
#X connect 5 0 12 1;
#X connect 6 0 13 1;
#X connect 7 0 15 1;
#X connect 7 0 36 0;
#X connect 8 0 16 1;
#X connect 8 0 42 0;
#X connect 9 0 17 1;
#X connect 9 0 40 0;
#X connect 10 0 18 1;
#X connect 10 0 38 0;
#X connect 11 0 19 1;
#X connect 11 0 22 0;
#X connect 12 0 20 1;
#X connect 12 0 34 0;
#X connect 13 0 21 1;
#X connect 13 0 32 0;
#X connect 14 0 7 0;
#X connect 14 0 8 0;
#X connect 14 0 9 0;
#X connect 14 0 10 0;
#X connect 14 0 11 0;
#X connect 14 0 12 0;
#X connect 14 0 13 0;
#X connect 14 0 27 0;
#X connect 15 0 25 0;
#X connect 15 0 37 0;
#X connect 16 0 25 0;
#X connect 16 0 43 0;
#X connect 17 0 25 0;
#X connect 17 0 41 0;
#X connect 18 0 25 0;
#X connect 18 0 39 0;
#X connect 19 0 23 0;
#X connect 19 0 25 0;
#X connect 20 0 25 0;
#X connect 20 0 35 0;
#X connect 21 0 25 0;
#X connect 21 0 33 0;
#X connect 24 0 44 0;
#X connect 26 0 15 0;
#X connect 26 1 16 0;
#X connect 26 2 17 0;
#X connect 26 3 18 0;
#X connect 26 4 19 0;
#X connect 26 5 20 0;
#X connect 26 6 21 0;
#X connect 26 7 28 0;
#X connect 27 0 28 1;
#X connect 27 0 30 0;
#X connect 28 0 25 0;
#X connect 28 0 31 0;
#X connect 29 0 27 1;
#X connect 44 0 26 0;
#X restore 343 1548 pd scale_loader;
#X obj 343 1464 bng 19 250 50 0 empty empty empty 0 -10 0 12 #fcfcfc #000000 #000000;
#X obj 398 1434 r %-notes;
#X floatatom 484 1573 5 0 0 0 - - - 0;
#X floatatom 484 1518 5 0 0 0 - - - 0;
#X obj 479 1404 random 9;
#X obj 485 1488 random 8;
#N canvas 235 59 1218 804 scale_loader 0;
#X obj 651 563 r p1;
#X obj 706 501 r p2;
#X obj 758 450 r p3;
#X obj 809 382 r p4;
#X obj 860 332 r p5;
#X obj 903 291 r p6;
#X obj 918 250 r p7;
#X obj 615 564 f;
#X obj 676 501 f;
#X obj 727 451 f;
#X obj 778 382 f;
#X obj 830 332 f;
#X obj 871 290 f;
#X obj 887 250 f;
#X obj 498 276 bng 19 250 50 0 empty load empty 0 -10 0 12 #fcfcfc #000000 #000000;
#X obj 582 564 f;
#X obj 643 501 f;
#X obj 694 451 f;
#X obj 745 382 f;
#X obj 797 332 f;
#X obj 838 290 f;
#X obj 854 250 f;
#X floatatom 1015 362 2 0 0 0 - - - 0;
#X floatatom 982 362 2 0 0 0 - - - 0;
#X obj 592 119 inlet;
#X obj 597 686 outlet;
#X obj 591 201 sel 0 1 2 3 4 5 6 7, f 50;
#X obj 928 226 f;
#X obj 895 226 f;
#X obj 959 226 r p8;
#X floatatom 1015 262 2 0 0 0 - - - 0;
#X floatatom 982 262 2 0 0 0 - - - 0;
#X floatatom 1016 293 2 0 0 0 - - - 0;
#X floatatom 983 293 2 0 0 0 - - - 0;
#X floatatom 1013 328 2 0 0 0 - - - 0;
#X floatatom 980 328 2 0 0 0 - - - 0;
#X floatatom 1008 565 2 0 0 0 - - - 0;
#X floatatom 975 565 2 0 0 0 - - - 0;
#X floatatom 1012 425 2 0 0 0 - - - 0;
#X floatatom 979 425 2 0 0 0 - - - 0;
#X floatatom 1013 456 2 0 0 0 - - - 0;
#X floatatom 980 456 2 0 0 0 - - - 0;
#X floatatom 1006 531 2 0 0 0 - - - 0;
#X floatatom 973 531 2 0 0 0 - - - 0;
#X floatatom 596 153 5 0 0 0 - - - 0;
#X connect 0 0 7 1;
#X connect 1 0 8 1;
#X connect 2 0 9 1;
#X connect 3 0 10 1;
#X connect 4 0 11 1;
#X connect 5 0 12 1;
#X connect 6 0 13 1;
#X connect 7 0 15 1;
#X connect 7 0 36 0;
#X connect 8 0 16 1;
#X connect 8 0 42 0;
#X connect 9 0 17 1;
#X connect 9 0 40 0;
#X connect 10 0 18 1;
#X connect 10 0 38 0;
#X connect 11 0 19 1;
#X connect 11 0 22 0;
#X connect 12 0 20 1;
#X connect 12 0 34 0;
#X connect 13 0 21 1;
#X connect 13 0 32 0;
#X connect 14 0 7 0;
#X connect 14 0 8 0;
#X connect 14 0 9 0;
#X connect 14 0 10 0;
#X connect 14 0 11 0;
#X connect 14 0 12 0;
#X connect 14 0 13 0;
#X connect 14 0 27 0;
#X connect 15 0 25 0;
#X connect 15 0 37 0;
#X connect 16 0 25 0;
#X connect 16 0 43 0;
#X connect 17 0 25 0;
#X connect 17 0 41 0;
#X connect 18 0 25 0;
#X connect 18 0 39 0;
#X connect 19 0 23 0;
#X connect 19 0 25 0;
#X connect 20 0 25 0;
#X connect 20 0 35 0;
#X connect 21 0 25 0;
#X connect 21 0 33 0;
#X connect 24 0 44 0;
#X connect 26 0 15 0;
#X connect 26 1 16 0;
#X connect 26 2 17 0;
#X connect 26 3 18 0;
#X connect 26 4 19 0;
#X connect 26 5 20 0;
#X connect 26 6 21 0;
#X connect 26 7 28 0;
#X connect 27 0 28 1;
#X connect 27 0 30 0;
#X connect 28 0 25 0;
#X connect 28 0 31 0;
#X connect 29 0 27 1;
#X connect 44 0 26 0;
#X restore 484 1546 pd scale_loader;
#X obj 484 1462 bng 19 250 50 0 empty empty empty 0 -10 0 12 #fcfcfc #000000 #000000;
#X obj 536 1431 r %-notes;
#X floatatom 623 1572 5 0 0 0 - - - 0;
#X floatatom 623 1517 5 0 0 0 - - - 0;
#X obj 618 1403 random 9;
#X obj 624 1487 random 8;
#N canvas 235 59 1218 804 scale_loader 0;
#X obj 651 563 r p1;
#X obj 706 501 r p2;
#X obj 758 450 r p3;
#X obj 809 382 r p4;
#X obj 860 332 r p5;
#X obj 903 291 r p6;
#X obj 918 250 r p7;
#X obj 615 564 f;
#X obj 676 501 f;
#X obj 727 451 f;
#X obj 778 382 f;
#X obj 830 332 f;
#X obj 871 290 f;
#X obj 887 250 f;
#X obj 498 276 bng 19 250 50 0 empty load empty 0 -10 0 12 #fcfcfc #000000 #000000;
#X obj 582 564 f;
#X obj 643 501 f;
#X obj 694 451 f;
#X obj 745 382 f;
#X obj 797 332 f;
#X obj 838 290 f;
#X obj 854 250 f;
#X floatatom 1015 362 2 0 0 0 - - - 0;
#X floatatom 982 362 2 0 0 0 - - - 0;
#X obj 592 119 inlet;
#X obj 597 686 outlet;
#X obj 591 201 sel 0 1 2 3 4 5 6 7, f 50;
#X obj 928 226 f;
#X obj 895 226 f;
#X obj 959 226 r p8;
#X floatatom 1015 262 2 0 0 0 - - - 0;
#X floatatom 982 262 2 0 0 0 - - - 0;
#X floatatom 1016 293 2 0 0 0 - - - 0;
#X floatatom 983 293 2 0 0 0 - - - 0;
#X floatatom 1013 328 2 0 0 0 - - - 0;
#X floatatom 980 328 2 0 0 0 - - - 0;
#X floatatom 1008 565 2 0 0 0 - - - 0;
#X floatatom 975 565 2 0 0 0 - - - 0;
#X floatatom 1012 425 2 0 0 0 - - - 0;
#X floatatom 979 425 2 0 0 0 - - - 0;
#X floatatom 1013 456 2 0 0 0 - - - 0;
#X floatatom 980 456 2 0 0 0 - - - 0;
#X floatatom 1006 531 2 0 0 0 - - - 0;
#X floatatom 973 531 2 0 0 0 - - - 0;
#X floatatom 596 153 5 0 0 0 - - - 0;
#X connect 0 0 7 1;
#X connect 1 0 8 1;
#X connect 2 0 9 1;
#X connect 3 0 10 1;
#X connect 4 0 11 1;
#X connect 5 0 12 1;
#X connect 6 0 13 1;
#X connect 7 0 15 1;
#X connect 7 0 36 0;
#X connect 8 0 16 1;
#X connect 8 0 42 0;
#X connect 9 0 17 1;
#X connect 9 0 40 0;
#X connect 10 0 18 1;
#X connect 10 0 38 0;
#X connect 11 0 19 1;
#X connect 11 0 22 0;
#X connect 12 0 20 1;
#X connect 12 0 34 0;
#X connect 13 0 21 1;
#X connect 13 0 32 0;
#X connect 14 0 7 0;
#X connect 14 0 8 0;
#X connect 14 0 9 0;
#X connect 14 0 10 0;
#X connect 14 0 11 0;
#X connect 14 0 12 0;
#X connect 14 0 13 0;
#X connect 14 0 27 0;
#X connect 15 0 25 0;
#X connect 15 0 37 0;
#X connect 16 0 25 0;
#X connect 16 0 43 0;
#X connect 17 0 25 0;
#X connect 17 0 41 0;
#X connect 18 0 25 0;
#X connect 18 0 39 0;
#X connect 19 0 23 0;
#X connect 19 0 25 0;
#X connect 20 0 25 0;
#X connect 20 0 35 0;
#X connect 21 0 25 0;
#X connect 21 0 33 0;
#X connect 24 0 44 0;
#X connect 26 0 15 0;
#X connect 26 1 16 0;
#X connect 26 2 17 0;
#X connect 26 3 18 0;
#X connect 26 4 19 0;
#X connect 26 5 20 0;
#X connect 26 6 21 0;
#X connect 26 7 28 0;
#X connect 27 0 28 1;
#X connect 27 0 30 0;
#X connect 28 0 25 0;
#X connect 28 0 31 0;
#X connect 29 0 27 1;
#X connect 44 0 26 0;
#X restore 623 1545 pd scale_loader;
#X obj 623 1461 bng 19 250 50 0 empty empty empty 0 -10 0 12 #fcfcfc #000000 #000000;
#X obj 678 1430 r %-notes;
#X floatatom 764 1570 5 0 0 0 - - - 0;
#X floatatom 764 1515 5 0 0 0 - - - 0;
#X obj 759 1401 random 9;
#X obj 765 1485 random 8;
#N canvas 235 59 1218 804 scale_loader 0;
#X obj 651 563 r p1;
#X obj 706 501 r p2;
#X obj 758 450 r p3;
#X obj 809 382 r p4;
#X obj 860 332 r p5;
#X obj 903 291 r p6;
#X obj 918 250 r p7;
#X obj 615 564 f;
#X obj 676 501 f;
#X obj 727 451 f;
#X obj 778 382 f;
#X obj 830 332 f;
#X obj 871 290 f;
#X obj 887 250 f;
#X obj 498 276 bng 19 250 50 0 empty load empty 0 -10 0 12 #fcfcfc #000000 #000000;
#X obj 582 564 f;
#X obj 643 501 f;
#X obj 694 451 f;
#X obj 745 382 f;
#X obj 797 332 f;
#X obj 838 290 f;
#X obj 854 250 f;
#X floatatom 1015 362 2 0 0 0 - - - 0;
#X floatatom 982 362 2 0 0 0 - - - 0;
#X obj 592 119 inlet;
#X obj 597 686 outlet;
#X obj 591 201 sel 0 1 2 3 4 5 6 7, f 50;
#X obj 928 226 f;
#X obj 895 226 f;
#X obj 959 226 r p8;
#X floatatom 1015 262 2 0 0 0 - - - 0;
#X floatatom 982 262 2 0 0 0 - - - 0;
#X floatatom 1016 293 2 0 0 0 - - - 0;
#X floatatom 983 293 2 0 0 0 - - - 0;
#X floatatom 1013 328 2 0 0 0 - - - 0;
#X floatatom 980 328 2 0 0 0 - - - 0;
#X floatatom 1008 565 2 0 0 0 - - - 0;
#X floatatom 975 565 2 0 0 0 - - - 0;
#X floatatom 1012 425 2 0 0 0 - - - 0;
#X floatatom 979 425 2 0 0 0 - - - 0;
#X floatatom 1013 456 2 0 0 0 - - - 0;
#X floatatom 980 456 2 0 0 0 - - - 0;
#X floatatom 1006 531 2 0 0 0 - - - 0;
#X floatatom 973 531 2 0 0 0 - - - 0;
#X floatatom 596 153 5 0 0 0 - - - 0;
#X connect 0 0 7 1;
#X connect 1 0 8 1;
#X connect 2 0 9 1;
#X connect 3 0 10 1;
#X connect 4 0 11 1;
#X connect 5 0 12 1;
#X connect 6 0 13 1;
#X connect 7 0 15 1;
#X connect 7 0 36 0;
#X connect 8 0 16 1;
#X connect 8 0 42 0;
#X connect 9 0 17 1;
#X connect 9 0 40 0;
#X connect 10 0 18 1;
#X connect 10 0 38 0;
#X connect 11 0 19 1;
#X connect 11 0 22 0;
#X connect 12 0 20 1;
#X connect 12 0 34 0;
#X connect 13 0 21 1;
#X connect 13 0 32 0;
#X connect 14 0 7 0;
#X connect 14 0 8 0;
#X connect 14 0 9 0;
#X connect 14 0 10 0;
#X connect 14 0 11 0;
#X connect 14 0 12 0;
#X connect 14 0 13 0;
#X connect 14 0 27 0;
#X connect 15 0 25 0;
#X connect 15 0 37 0;
#X connect 16 0 25 0;
#X connect 16 0 43 0;
#X connect 17 0 25 0;
#X connect 17 0 41 0;
#X connect 18 0 25 0;
#X connect 18 0 39 0;
#X connect 19 0 23 0;
#X connect 19 0 25 0;
#X connect 20 0 25 0;
#X connect 20 0 35 0;
#X connect 21 0 25 0;
#X connect 21 0 33 0;
#X connect 24 0 44 0;
#X connect 26 0 15 0;
#X connect 26 1 16 0;
#X connect 26 2 17 0;
#X connect 26 3 18 0;
#X connect 26 4 19 0;
#X connect 26 5 20 0;
#X connect 26 6 21 0;
#X connect 26 7 28 0;
#X connect 27 0 28 1;
#X connect 27 0 30 0;
#X connect 28 0 25 0;
#X connect 28 0 31 0;
#X connect 29 0 27 1;
#X connect 44 0 26 0;
#X restore 764 1543 pd scale_loader;
#X obj 764 1459 bng 19 250 50 0 empty empty empty 0 -10 0 12 #fcfcfc #000000 #000000;
#X obj 822 1430 r %-notes;
#X obj 442 676 mod 4;
#X obj 468 583 s note-pulse;
#X obj 92 725 bng 19 250 50 0 empty empty empty 0 -10 0 12 #fcfcfc #000000 #000000;
#X obj 565 498 s note-duration;
#X obj 279 1356 r note-pulse;
#X obj 449 1355 r note-pulse;
#X obj 617 1354 r note-pulse;
#X obj 787 1353 r note-pulse;
#X obj 470 555 bng 19 250 50 0 empty empty empty 0 -10 0 12 #fcfcfc #000000 #000000;
#X obj 296 1387 bng 19 250 50 0 empty empty empty 0 -10 0 12 #fcfcfc #000000 #000000;
#X obj 502 888 r random_note-1;
#X obj 623 889 r random_note-2;
#X obj 758 891 r random_note-3;
#X obj 881 888 r random_note-4;
#X obj 342 1604 s random_note-1;
#X obj 483 1602 s random_note-2;
#X obj 622 1601 s random_note-3;
#X obj 763 1599 s random_note-4;
#X obj 337 1433 moses 5;
#X obj 478 1431 moses 5;
#X obj 617 1430 moses 5;
#X obj 758 1428 moses 5;
#X obj 155 614 mod 4;
#X obj 881 1250 r note-duration;
#X obj 154 701 sel 1, f 7;
#X obj 153 651 + 1;
#X floatatom 460 728 5 0 0 0 - - - 0;
#X obj 459 704 + 1;
#X obj 521 750 sel 1 2 3 4, f 75;
#X msg 115 438 1;
#X obj 640 171 random 6;
#X obj 603 191 + 1;
#X obj 639 225 sel 1 2 3 4 5 6, f 34;
#X obj 805 263 bng 19 250 50 0 empty empty empty 0 -10 0 12 #fcfcfc #000000 #000000;
#X obj 854 264 bng 19 250 50 0 empty empty empty 0 -10 0 12 #fcfcfc #000000 #000000;
#X msg 805 288 0.5;
#X msg 857 289 0.25;
#X obj 878 1155 r note-pulse;
#X obj 528 329 r metro;
#X floatatom 576 1239 5 0 0 0 - - - 0;
#X obj 348 1155 r root;
#X floatatom 349 1186 5 0 0 0 - - - 0;
#X connect 0 0 20 0;
#X connect 1 0 129 0;
#X connect 2 0 13 0;
#X connect 3 0 14 0;
#X connect 4 0 15 0;
#X connect 5 0 16 0;
#X connect 7 0 65 0;
#X connect 8 0 12 0;
#X connect 8 0 23 1;
#X connect 9 0 10 0;
#X connect 10 0 12 0;
#X connect 10 1 12 1;
#X connect 11 0 24 1;
#X connect 11 0 100 0;
#X connect 12 0 11 0;
#X connect 13 0 9 0;
#X connect 14 0 9 0;
#X connect 15 0 9 0;
#X connect 16 0 9 0;
#X connect 17 0 23 0;
#X connect 17 0 24 0;
#X connect 17 0 126 0;
#X connect 18 0 0 0;
#X connect 19 0 127 0;
#X connect 20 0 19 0;
#X connect 21 0 26 0;
#X connect 23 0 21 0;
#X connect 23 0 18 0;
#X connect 24 0 7 0;
#X connect 24 0 105 0;
#X connect 26 0 27 0;
#X connect 26 0 119 0;
#X connect 27 0 26 1;
#X connect 28 0 121 0;
#X connect 30 0 40 0;
#X connect 31 0 34 0;
#X connect 32 0 35 0;
#X connect 33 0 36 0;
#X connect 34 0 59 1;
#X connect 35 0 59 1;
#X connect 36 0 59 1;
#X connect 37 0 36 1;
#X connect 38 0 35 1;
#X connect 39 0 34 1;
#X connect 40 0 59 1;
#X connect 41 0 40 1;
#X connect 42 0 44 0;
#X connect 42 0 52 0;
#X connect 43 0 51 0;
#X connect 45 0 53 0;
#X connect 46 0 51 0;
#X connect 47 0 54 0;
#X connect 48 0 55 0;
#X connect 49 0 51 0;
#X connect 50 0 51 0;
#X connect 51 0 60 0;
#X connect 52 0 43 0;
#X connect 52 1 30 0;
#X connect 53 0 46 0;
#X connect 53 1 31 0;
#X connect 54 0 49 0;
#X connect 54 1 32 0;
#X connect 55 0 50 0;
#X connect 55 1 33 0;
#X connect 57 0 52 1;
#X connect 57 0 53 1;
#X connect 57 0 54 1;
#X connect 57 0 55 1;
#X connect 57 0 56 0;
#X connect 59 0 60 0;
#X connect 59 0 136 0;
#X connect 60 0 58 0;
#X connect 60 1 58 1;
#X connect 62 0 58 2;
#X connect 63 0 60 1;
#X connect 63 0 61 0;
#X connect 64 0 63 0;
#X connect 65 0 66 0;
#X connect 65 0 97 0;
#X connect 66 0 65 1;
#X connect 67 0 59 0;
#X connect 67 0 68 0;
#X connect 69 0 111 0;
#X connect 70 0 73 0;
#X connect 71 0 115 0;
#X connect 72 0 70 0;
#X connect 73 0 69 0;
#X connect 74 0 72 0;
#X connect 75 0 115 1;
#X connect 76 0 112 0;
#X connect 77 0 80 0;
#X connect 78 0 116 0;
#X connect 79 0 77 0;
#X connect 80 0 76 0;
#X connect 81 0 79 0;
#X connect 82 0 116 1;
#X connect 83 0 113 0;
#X connect 84 0 87 0;
#X connect 85 0 117 0;
#X connect 86 0 84 0;
#X connect 87 0 83 0;
#X connect 88 0 86 0;
#X connect 89 0 117 1;
#X connect 90 0 114 0;
#X connect 91 0 94 0;
#X connect 92 0 118 0;
#X connect 93 0 91 0;
#X connect 94 0 90 0;
#X connect 95 0 93 0;
#X connect 96 0 118 1;
#X connect 97 0 124 0;
#X connect 101 0 106 0;
#X connect 102 0 78 0;
#X connect 103 0 85 0;
#X connect 104 0 92 0;
#X connect 105 0 98 0;
#X connect 106 0 71 0;
#X connect 107 0 41 0;
#X connect 108 0 39 0;
#X connect 109 0 38 0;
#X connect 110 0 37 0;
#X connect 115 0 74 0;
#X connect 116 0 81 0;
#X connect 117 0 88 0;
#X connect 118 0 95 0;
#X connect 119 0 122 0;
#X connect 120 0 60 2;
#X connect 121 0 29 0;
#X connect 121 0 99 0;
#X connect 122 0 28 0;
#X connect 123 0 125 0;
#X connect 124 0 123 0;
#X connect 125 0 42 0;
#X connect 125 1 45 0;
#X connect 125 2 47 0;
#X connect 125 3 48 0;
#X connect 126 0 123 0;
#X connect 126 0 28 0;
#X connect 126 0 26 1;
#X connect 126 0 65 1;
#X connect 127 0 128 0;
#X connect 128 0 1 0;
#X connect 129 0 2 0;
#X connect 129 1 3 0;
#X connect 129 2 4 0;
#X connect 129 3 5 0;
#X connect 129 4 130 0;
#X connect 129 5 131 0;
#X connect 130 0 132 0;
#X connect 131 0 133 0;
#X connect 132 0 9 0;
#X connect 133 0 9 0;
#X connect 134 0 64 0;
#X connect 135 0 8 0;
#X connect 137 0 138 0;
