#N canvas 490 39 1189 831 12;
#X floatatom 244 450 5 0 0 0 - - - 0;
#X obj 100 28 r note-pulse;
#X obj 117 59 bng 19 250 50 0 empty empty empty 0 -10 0 12 #fcfcfc #000000 #000000;
#X floatatom 469 202 5 0 0 0 - - - 0;
#X obj 464 88 random 9;
#X obj 470 172 random 8;
#N canvas 235 59 1218 804 scale_loader 0;
#X obj 651 563 r p1;
#X obj 706 501 r p2;
#X obj 758 450 r p3;
#X obj 809 382 r p4;
#X obj 860 332 r p5;
#X obj 903 291 r p6;
#X obj 918 250 r p7;
#X obj 615 564 f;
#X obj 676 501 f;
#X obj 727 451 f;
#X obj 778 382 f;
#X obj 830 332 f;
#X obj 871 290 f;
#X obj 887 250 f;
#X obj 498 276 bng 19 250 50 0 empty load empty 0 -10 0 12 #fcfcfc #000000 #000000;
#X obj 582 564 f;
#X obj 643 501 f;
#X obj 694 451 f;
#X obj 745 382 f;
#X obj 797 332 f;
#X obj 838 290 f;
#X obj 854 250 f;
#X floatatom 1015 362 2 0 0 0 - - - 0;
#X floatatom 982 362 2 0 0 0 - - - 0;
#X obj 592 119 inlet;
#X obj 597 686 outlet;
#X obj 591 201 sel 0 1 2 3 4 5 6 7, f 50;
#X obj 928 226 f;
#X obj 895 226 f;
#X obj 959 226 r p8;
#X floatatom 1015 262 2 0 0 0 - - - 0;
#X floatatom 982 262 2 0 0 0 - - - 0;
#X floatatom 1016 293 2 0 0 0 - - - 0;
#X floatatom 983 293 2 0 0 0 - - - 0;
#X floatatom 1013 328 2 0 0 0 - - - 0;
#X floatatom 980 328 2 0 0 0 - - - 0;
#X floatatom 1008 565 2 0 0 0 - - - 0;
#X floatatom 975 565 2 0 0 0 - - - 0;
#X floatatom 1012 425 2 0 0 0 - - - 0;
#X floatatom 979 425 2 0 0 0 - - - 0;
#X floatatom 1013 456 2 0 0 0 - - - 0;
#X floatatom 980 456 2 0 0 0 - - - 0;
#X floatatom 1006 531 2 0 0 0 - - - 0;
#X floatatom 973 531 2 0 0 0 - - - 0;
#X floatatom 596 153 5 0 0 0 - - - 0;
#X connect 0 0 7 1;
#X connect 1 0 8 1;
#X connect 2 0 9 1;
#X connect 3 0 10 1;
#X connect 4 0 11 1;
#X connect 5 0 12 1;
#X connect 6 0 13 1;
#X connect 7 0 15 1;
#X connect 7 0 36 0;
#X connect 8 0 16 1;
#X connect 8 0 42 0;
#X connect 9 0 17 1;
#X connect 9 0 40 0;
#X connect 10 0 18 1;
#X connect 10 0 38 0;
#X connect 11 0 19 1;
#X connect 11 0 22 0;
#X connect 12 0 20 1;
#X connect 12 0 34 0;
#X connect 13 0 21 1;
#X connect 13 0 32 0;
#X connect 14 0 7 0;
#X connect 14 0 8 0;
#X connect 14 0 9 0;
#X connect 14 0 10 0;
#X connect 14 0 11 0;
#X connect 14 0 12 0;
#X connect 14 0 13 0;
#X connect 14 0 27 0;
#X connect 15 0 25 0;
#X connect 15 0 37 0;
#X connect 16 0 25 0;
#X connect 16 0 43 0;
#X connect 17 0 25 0;
#X connect 17 0 41 0;
#X connect 18 0 25 0;
#X connect 18 0 39 0;
#X connect 19 0 23 0;
#X connect 19 0 25 0;
#X connect 20 0 25 0;
#X connect 20 0 35 0;
#X connect 21 0 25 0;
#X connect 21 0 33 0;
#X connect 24 0 44 0;
#X connect 26 0 15 0;
#X connect 26 1 16 0;
#X connect 26 2 17 0;
#X connect 26 3 18 0;
#X connect 26 4 19 0;
#X connect 26 5 20 0;
#X connect 26 6 21 0;
#X connect 26 7 28 0;
#X connect 27 0 28 1;
#X connect 27 0 30 0;
#X connect 28 0 25 0;
#X connect 28 0 31 0;
#X connect 29 0 27 1;
#X connect 44 0 26 0;
#X restore 464 229 pd scale_loader;
#X obj 469 146 bng 19 250 50 0 empty empty empty 0 -10 0 12 #fcfcfc #000000 #000000;
#X obj 463 115 moses 5;
#X obj 352 371 -;
#X obj 354 398 abs;
#X floatatom 356 426 5 0 0 0 - - - 0;
#X floatatom 465 258 5 0 0 0 - - - 0;
#X obj 410 310 t b f;
#X floatatom 759 201 5 0 0 0 - - - 0;
#X obj 754 87 random 9;
#X obj 760 171 random 8;
#N canvas 235 59 1218 804 scale_loader 0;
#X obj 651 563 r p1;
#X obj 706 501 r p2;
#X obj 758 450 r p3;
#X obj 809 382 r p4;
#X obj 860 332 r p5;
#X obj 903 291 r p6;
#X obj 918 250 r p7;
#X obj 615 564 f;
#X obj 676 501 f;
#X obj 727 451 f;
#X obj 778 382 f;
#X obj 830 332 f;
#X obj 871 290 f;
#X obj 887 250 f;
#X obj 498 276 bng 19 250 50 0 empty load empty 0 -10 0 12 #fcfcfc #000000 #000000;
#X obj 582 564 f;
#X obj 643 501 f;
#X obj 694 451 f;
#X obj 745 382 f;
#X obj 797 332 f;
#X obj 838 290 f;
#X obj 854 250 f;
#X floatatom 1015 362 2 0 0 0 - - - 0;
#X floatatom 982 362 2 0 0 0 - - - 0;
#X obj 592 119 inlet;
#X obj 597 686 outlet;
#X obj 591 201 sel 0 1 2 3 4 5 6 7, f 50;
#X obj 928 226 f;
#X obj 895 226 f;
#X obj 959 226 r p8;
#X floatatom 1015 262 2 0 0 0 - - - 0;
#X floatatom 982 262 2 0 0 0 - - - 0;
#X floatatom 1016 293 2 0 0 0 - - - 0;
#X floatatom 983 293 2 0 0 0 - - - 0;
#X floatatom 1013 328 2 0 0 0 - - - 0;
#X floatatom 980 328 2 0 0 0 - - - 0;
#X floatatom 1008 565 2 0 0 0 - - - 0;
#X floatatom 975 565 2 0 0 0 - - - 0;
#X floatatom 1012 425 2 0 0 0 - - - 0;
#X floatatom 979 425 2 0 0 0 - - - 0;
#X floatatom 1013 456 2 0 0 0 - - - 0;
#X floatatom 980 456 2 0 0 0 - - - 0;
#X floatatom 1006 531 2 0 0 0 - - - 0;
#X floatatom 973 531 2 0 0 0 - - - 0;
#X floatatom 596 153 5 0 0 0 - - - 0;
#X connect 0 0 7 1;
#X connect 1 0 8 1;
#X connect 2 0 9 1;
#X connect 3 0 10 1;
#X connect 4 0 11 1;
#X connect 5 0 12 1;
#X connect 6 0 13 1;
#X connect 7 0 15 1;
#X connect 7 0 36 0;
#X connect 8 0 16 1;
#X connect 8 0 42 0;
#X connect 9 0 17 1;
#X connect 9 0 40 0;
#X connect 10 0 18 1;
#X connect 10 0 38 0;
#X connect 11 0 19 1;
#X connect 11 0 22 0;
#X connect 12 0 20 1;
#X connect 12 0 34 0;
#X connect 13 0 21 1;
#X connect 13 0 32 0;
#X connect 14 0 7 0;
#X connect 14 0 8 0;
#X connect 14 0 9 0;
#X connect 14 0 10 0;
#X connect 14 0 11 0;
#X connect 14 0 12 0;
#X connect 14 0 13 0;
#X connect 14 0 27 0;
#X connect 15 0 25 0;
#X connect 15 0 37 0;
#X connect 16 0 25 0;
#X connect 16 0 43 0;
#X connect 17 0 25 0;
#X connect 17 0 41 0;
#X connect 18 0 25 0;
#X connect 18 0 39 0;
#X connect 19 0 23 0;
#X connect 19 0 25 0;
#X connect 20 0 25 0;
#X connect 20 0 35 0;
#X connect 21 0 25 0;
#X connect 21 0 33 0;
#X connect 24 0 44 0;
#X connect 26 0 15 0;
#X connect 26 1 16 0;
#X connect 26 2 17 0;
#X connect 26 3 18 0;
#X connect 26 4 19 0;
#X connect 26 5 20 0;
#X connect 26 6 21 0;
#X connect 26 7 28 0;
#X connect 27 0 28 1;
#X connect 27 0 30 0;
#X connect 28 0 25 0;
#X connect 28 0 31 0;
#X connect 29 0 27 1;
#X connect 44 0 26 0;
#X restore 754 228 pd scale_loader;
#X obj 759 145 bng 19 250 50 0 empty empty empty 0 -10 0 12 #fcfcfc #000000 #000000;
#X obj 753 114 moses 5;
#X obj 769 421 spigot;
#X obj 822 384 tgl 19 0 empty empty empty 0 -10 0 12 #fcfcfc #000000 #000000 0 1;
#X obj 642 370 -;
#X obj 644 397 abs;
#X floatatom 646 425 5 0 0 0 - - - 0;
#X obj 825 358 <= 4;
#X floatatom 755 257 5 0 0 0 - - - 0;
#X obj 700 309 t b f;
#X floatatom 771 572 5 0 0 0 - - - 0;
#X floatatom 1066 186 5 0 0 0 - - - 0;
#X obj 1061 72 random 9;
#X obj 1067 156 random 8;
#N canvas 235 59 1218 804 scale_loader 0;
#X obj 651 563 r p1;
#X obj 706 501 r p2;
#X obj 758 450 r p3;
#X obj 809 382 r p4;
#X obj 860 332 r p5;
#X obj 903 291 r p6;
#X obj 918 250 r p7;
#X obj 615 564 f;
#X obj 676 501 f;
#X obj 727 451 f;
#X obj 778 382 f;
#X obj 830 332 f;
#X obj 871 290 f;
#X obj 887 250 f;
#X obj 498 276 bng 19 250 50 0 empty load empty 0 -10 0 12 #fcfcfc #000000 #000000;
#X obj 582 564 f;
#X obj 643 501 f;
#X obj 694 451 f;
#X obj 745 382 f;
#X obj 797 332 f;
#X obj 838 290 f;
#X obj 854 250 f;
#X floatatom 1015 362 2 0 0 0 - - - 0;
#X floatatom 982 362 2 0 0 0 - - - 0;
#X obj 592 119 inlet;
#X obj 597 686 outlet;
#X obj 591 201 sel 0 1 2 3 4 5 6 7, f 50;
#X obj 928 226 f;
#X obj 895 226 f;
#X obj 959 226 r p8;
#X floatatom 1015 262 2 0 0 0 - - - 0;
#X floatatom 982 262 2 0 0 0 - - - 0;
#X floatatom 1016 293 2 0 0 0 - - - 0;
#X floatatom 983 293 2 0 0 0 - - - 0;
#X floatatom 1013 328 2 0 0 0 - - - 0;
#X floatatom 980 328 2 0 0 0 - - - 0;
#X floatatom 1008 565 2 0 0 0 - - - 0;
#X floatatom 975 565 2 0 0 0 - - - 0;
#X floatatom 1012 425 2 0 0 0 - - - 0;
#X floatatom 979 425 2 0 0 0 - - - 0;
#X floatatom 1013 456 2 0 0 0 - - - 0;
#X floatatom 980 456 2 0 0 0 - - - 0;
#X floatatom 1006 531 2 0 0 0 - - - 0;
#X floatatom 973 531 2 0 0 0 - - - 0;
#X floatatom 596 153 5 0 0 0 - - - 0;
#X connect 0 0 7 1;
#X connect 1 0 8 1;
#X connect 2 0 9 1;
#X connect 3 0 10 1;
#X connect 4 0 11 1;
#X connect 5 0 12 1;
#X connect 6 0 13 1;
#X connect 7 0 15 1;
#X connect 7 0 36 0;
#X connect 8 0 16 1;
#X connect 8 0 42 0;
#X connect 9 0 17 1;
#X connect 9 0 40 0;
#X connect 10 0 18 1;
#X connect 10 0 38 0;
#X connect 11 0 19 1;
#X connect 11 0 22 0;
#X connect 12 0 20 1;
#X connect 12 0 34 0;
#X connect 13 0 21 1;
#X connect 13 0 32 0;
#X connect 14 0 7 0;
#X connect 14 0 8 0;
#X connect 14 0 9 0;
#X connect 14 0 10 0;
#X connect 14 0 11 0;
#X connect 14 0 12 0;
#X connect 14 0 13 0;
#X connect 14 0 27 0;
#X connect 15 0 25 0;
#X connect 15 0 37 0;
#X connect 16 0 25 0;
#X connect 16 0 43 0;
#X connect 17 0 25 0;
#X connect 17 0 41 0;
#X connect 18 0 25 0;
#X connect 18 0 39 0;
#X connect 19 0 23 0;
#X connect 19 0 25 0;
#X connect 20 0 25 0;
#X connect 20 0 35 0;
#X connect 21 0 25 0;
#X connect 21 0 33 0;
#X connect 24 0 44 0;
#X connect 26 0 15 0;
#X connect 26 1 16 0;
#X connect 26 2 17 0;
#X connect 26 3 18 0;
#X connect 26 4 19 0;
#X connect 26 5 20 0;
#X connect 26 6 21 0;
#X connect 26 7 28 0;
#X connect 27 0 28 1;
#X connect 27 0 30 0;
#X connect 28 0 25 0;
#X connect 28 0 31 0;
#X connect 29 0 27 1;
#X connect 44 0 26 0;
#X restore 1061 213 pd scale_loader;
#X obj 1066 130 bng 19 250 50 0 empty empty empty 0 -10 0 12 #fcfcfc #000000 #000000;
#X obj 1060 99 moses 5;
#X obj 1076 406 spigot;
#X obj 1129 369 tgl 19 0 empty empty empty 0 -10 0 12 #fcfcfc #000000 #000000 0 1;
#X obj 949 355 -;
#X obj 951 382 abs;
#X floatatom 953 410 5 0 0 0 - - - 0;
#X obj 1132 343 <= 4;
#X floatatom 1062 242 5 0 0 0 - - - 0;
#X obj 1007 294 t b f;
#X floatatom 1078 557 5 0 0 0 - - - 0;
#X obj 502 416 spigot;
#X obj 555 379 tgl 19 0 empty empty empty 0 -10 0 12 #fcfcfc #000000 #000000 0 1;
#X obj 558 353 <= 4;
#X floatatom 504 567 5 0 0 0 - - - 0;
#X obj 526 116 r %-notes;
#X obj 816 115 r %-notes;
#X obj 1123 100 r %-notes;
#X obj 505 713 s random_note-2;
#X obj 765 714 s random_note-3;
#X obj 1062 706 s random_note-4;
#X msg 97 271 0;
#X obj 130 207 random 3;
#X obj 130 246 sel 0 1 2;
#X msg 126 302 2;
#X msg 169 327 4;
#N canvas 156 105 1218 804 scale_loader 0;
#X obj 651 563 r p1;
#X obj 706 501 r p2;
#X obj 758 450 r p3;
#X obj 809 382 r p4;
#X obj 860 332 r p5;
#X obj 903 291 r p6;
#X obj 918 250 r p7;
#X obj 615 564 f;
#X obj 676 501 f;
#X obj 727 451 f;
#X obj 778 382 f;
#X obj 830 332 f;
#X obj 871 290 f;
#X obj 887 250 f;
#X obj 498 276 bng 19 250 50 0 empty load empty 0 -10 0 12 #fcfcfc #000000 #000000;
#X obj 582 564 f;
#X obj 643 501 f;
#X obj 694 451 f;
#X obj 745 382 f;
#X obj 797 332 f;
#X obj 838 290 f;
#X obj 854 250 f;
#X floatatom 1015 362 2 0 0 0 - - - 0;
#X floatatom 982 362 2 0 0 0 - - - 0;
#X obj 592 119 inlet;
#X obj 597 686 outlet;
#X obj 591 201 sel 0 1 2 3 4 5 6 7, f 50;
#X obj 928 226 f;
#X obj 895 226 f;
#X obj 959 226 r p8;
#X floatatom 1015 262 2 0 0 0 - - - 0;
#X floatatom 982 262 2 0 0 0 - - - 0;
#X floatatom 1016 293 2 0 0 0 - - - 0;
#X floatatom 983 293 2 0 0 0 - - - 0;
#X floatatom 1013 328 2 0 0 0 - - - 0;
#X floatatom 980 328 2 0 0 0 - - - 0;
#X floatatom 1008 565 2 0 0 0 - - - 0;
#X floatatom 975 565 2 0 0 0 - - - 0;
#X floatatom 1012 425 2 0 0 0 - - - 0;
#X floatatom 979 425 2 0 0 0 - - - 0;
#X floatatom 1013 456 2 0 0 0 - - - 0;
#X floatatom 980 456 2 0 0 0 - - - 0;
#X floatatom 1006 531 2 0 0 0 - - - 0;
#X floatatom 973 531 2 0 0 0 - - - 0;
#X floatatom 596 153 5 0 0 0 - - - 0;
#X connect 0 0 7 1;
#X connect 1 0 8 1;
#X connect 2 0 9 1;
#X connect 3 0 10 1;
#X connect 4 0 11 1;
#X connect 5 0 12 1;
#X connect 6 0 13 1;
#X connect 7 0 15 1;
#X connect 7 0 36 0;
#X connect 8 0 16 1;
#X connect 8 0 42 0;
#X connect 9 0 17 1;
#X connect 9 0 40 0;
#X connect 10 0 18 1;
#X connect 10 0 38 0;
#X connect 11 0 19 1;
#X connect 11 0 22 0;
#X connect 12 0 20 1;
#X connect 12 0 34 0;
#X connect 13 0 21 1;
#X connect 13 0 32 0;
#X connect 14 0 7 0;
#X connect 14 0 8 0;
#X connect 14 0 9 0;
#X connect 14 0 10 0;
#X connect 14 0 11 0;
#X connect 14 0 12 0;
#X connect 14 0 13 0;
#X connect 14 0 27 0;
#X connect 15 0 25 0;
#X connect 15 0 37 0;
#X connect 16 0 25 0;
#X connect 16 0 43 0;
#X connect 17 0 25 0;
#X connect 17 0 41 0;
#X connect 18 0 25 0;
#X connect 18 0 39 0;
#X connect 19 0 23 0;
#X connect 19 0 25 0;
#X connect 20 0 25 0;
#X connect 20 0 35 0;
#X connect 21 0 25 0;
#X connect 21 0 33 0;
#X connect 24 0 44 0;
#X connect 26 0 15 0;
#X connect 26 1 16 0;
#X connect 26 2 17 0;
#X connect 26 3 18 0;
#X connect 26 4 19 0;
#X connect 26 5 20 0;
#X connect 26 6 21 0;
#X connect 26 7 28 0;
#X connect 27 0 28 1;
#X connect 27 0 30 0;
#X connect 28 0 25 0;
#X connect 28 0 31 0;
#X connect 29 0 27 1;
#X connect 44 0 26 0;
#X restore 76 382 pd scale_loader;
#X obj 235 534 s random_note-1;
#X connect 0 0 9 0;
#X connect 0 0 60 0;
#X connect 1 0 2 0;
#X connect 2 0 4 0;
#X connect 2 0 15 0;
#X connect 2 0 30 0;
#X connect 2 0 55 0;
#X connect 3 0 6 0;
#X connect 4 0 8 0;
#X connect 5 0 3 0;
#X connect 6 0 12 0;
#X connect 7 0 5 0;
#X connect 8 0 7 0;
#X connect 9 0 10 0;
#X connect 10 0 11 0;
#X connect 11 0 46 0;
#X connect 12 0 13 0;
#X connect 12 0 44 0;
#X connect 13 0 9 0;
#X connect 13 1 9 1;
#X connect 14 0 17 0;
#X connect 15 0 19 0;
#X connect 16 0 14 0;
#X connect 17 0 26 0;
#X connect 18 0 16 0;
#X connect 19 0 18 0;
#X connect 20 0 28 0;
#X connect 21 0 20 1;
#X connect 22 0 23 0;
#X connect 23 0 24 0;
#X connect 24 0 25 0;
#X connect 25 0 21 0;
#X connect 26 0 27 0;
#X connect 26 0 20 0;
#X connect 27 0 22 0;
#X connect 27 1 22 1;
#X connect 28 0 37 0;
#X connect 28 0 52 0;
#X connect 29 0 32 0;
#X connect 30 0 34 0;
#X connect 31 0 29 0;
#X connect 32 0 41 0;
#X connect 33 0 31 0;
#X connect 34 0 33 0;
#X connect 35 0 43 0;
#X connect 36 0 35 1;
#X connect 37 0 38 0;
#X connect 38 0 39 0;
#X connect 39 0 40 0;
#X connect 40 0 36 0;
#X connect 41 0 42 0;
#X connect 41 0 35 0;
#X connect 42 0 37 0;
#X connect 42 1 37 1;
#X connect 43 0 53 0;
#X connect 44 0 47 0;
#X connect 45 0 44 1;
#X connect 46 0 45 0;
#X connect 47 0 22 0;
#X connect 47 0 51 0;
#X connect 48 0 8 1;
#X connect 49 0 19 1;
#X connect 50 0 34 1;
#X connect 54 0 59 0;
#X connect 55 0 56 0;
#X connect 56 0 54 0;
#X connect 56 1 57 0;
#X connect 56 2 58 0;
#X connect 57 0 59 0;
#X connect 58 0 59 0;
#X connect 59 0 0 0;
