#N canvas 87 46 1199 759 12;
#X obj 43 371 Tempo_rand_indicator;
#N canvas 552 110 918 517 scale_selector 0;
#X obj 140 337 bng 19 250 50 0 load empty empty 0 -10 0 12 #fcfcfc #000000 #000000;
#X obj 113 130 vradio 19 1 0 7 empty rand-scale empty 0 -10 0 12 #fcfcfc #000000 #000000 0;
#X obj 211 337 bng 19 250 50 0 load empty empty 0 -10 0 12 #fcfcfc #000000 #000000;
#X msg 113 360 \; p1 0 \; p2 2 \; p3 4 \; p4 5 \; p5 7 \; p6 9 \; p7 11 \; p8 12 \;;
#X msg 184 360 \; p1 0 \; p2 2 \; p3 3 \; p4 5 \; p5 7 \; p6 8 \; p7 10 \; p8 12 \;;
#X obj 286 337 bng 19 250 50 0 load empty empty 0 -10 0 12 #fcfcfc #000000 #000000;
#X obj 357 337 bng 19 250 50 0 load empty empty 0 -10 0 12 #fcfcfc #000000 #000000;
#X obj 457 335 bng 19 250 50 0 load empty empty 0 -10 0 12 #fcfcfc #000000 #000000;
#X obj 528 335 bng 19 250 50 0 load empty empty 0 -10 0 12 #fcfcfc #000000 #000000;
#X obj 606 334 bng 19 250 50 0 load empty empty 0 -10 0 12 #fcfcfc #000000 #000000;
#X text 138 127 Ionian/major;
#X text 137 148 Aeolian/minor;
#X text 138 168 Dorian;
#X text 137 188 Phrygian;
#X text 138 209 Lydian;
#X text 138 227 Mixolydian;
#X text 138 245 locrian;
#X msg 259 363 \; p1 0 \; p2 2 \; p3 3 \; p4 5 \; p5 7 \; p6 9 \; p7 10 \; p8 12 \;;
#X msg 328 364 \; p1 0 \; p2 1 \; p3 3 \; p4 5 \; p5 7 \; p6 8 \; p7 10 \; p8 12 \;;
#X obj 113 277 sel 0 1 2 3 4 5 6, f 81;
#X msg 416 362 \; p1 0 \; p2 2 \; p3 4 \; p4 6 \; p5 7 \; p6 9 \; p7 11 \; p8 12 \;;
#X msg 485 363 \; p1 0 \; p2 2 \; p3 4 \; p4 5 \; p5 7 \; p6 9 \; p7 10 \; p8 12 \;;
#X msg 566 362 \; p1 0 \; p2 1 \; p3 3 \; p4 5 \; p5 6 \; p6 8 \; p7 10 \; p8 12 \;;
#X connect 1 0 19 0;
#X connect 19 0 3 0;
#X connect 19 0 0 0;
#X connect 19 1 4 0;
#X connect 19 1 2 0;
#X connect 19 2 17 0;
#X connect 19 2 5 0;
#X connect 19 3 18 0;
#X connect 19 3 6 0;
#X connect 19 4 20 0;
#X connect 19 4 7 0;
#X connect 19 5 21 0;
#X connect 19 5 8 0;
#X connect 19 6 22 0;
#X connect 19 6 9 0;
#X coords 0 -1 1 1 145 170 1 100 100;
#X restore 42 440 pd scale_selector;
#N canvas 743 165 727 445 Play 0;
#X obj 121 129 tgl 100 0 empty empty empty 0 -10 0 12 #faff00 #000000 #000000 0 1;
#X obj 106 263 s 1-tempo;
#X obj 215 300 s chords_reset;
#X obj 35 262 s grand;
#X connect 0 0 1 0;
#X connect 0 0 2 0;
#X connect 0 0 3 0;
#X coords 0 -1 1 1 140 140 1 100 100;
#X restore 44 88 pd Play;
#N canvas 14 65 494 425 Global_control 0;
#X obj 128 112 vradio 19 1 0 12 key empty empty 0 -10 0 12 #fcfcfc #000000 #000000 0;
#X text 161 114 C;
#X text 161 150 D;
#X text 161 186 E;
#X text 161 209 F;
#X text 159 246 G;
#X text 160 282 A;
#X text 159 320 B;
#X text 151 130 C#/Db;
#X text 151 168 D#/Eb;
#X text 151 226 F#/Gb;
#X text 150 265 G#/Ab;
#X text 149 301 A#/Bb;
#X coords 0 -1 1 1 100 250 2 100 100;
#X restore 199 365 pd Global_control;
#X obj 723 133 hradio 19 1 0 10 %-velo-1 empty empty 0 -10 0 12 #fcfcfc #000000 #000000 0;
#X floatatom 944 138 5 0 127 0 - - velocity-low-1 0;
#X floatatom 1001 138 5 0 127 0 - - velocity-high-1 0;
#X floatatom 1086 135 5 0 0 0 - current_velo-1 - 0;
#X text 1086 109 current velo;
#N canvas 241 168 1229 635 Key 0;
#X listbox 32 15 5 0 0 0 - - - 24;
#X msg 461 210 symbol F;
#X msg 350 66 symbol C;
#X msg 371 96 symbol C#/Db;
#X msg 398 123 symbol D;
#X msg 419 153 symbol D#/Eb;
#X msg 440 180 symbol E;
#X msg 488 237 symbol F#/Gb;
#X msg 509 267 symbol G;
#X msg 533 295 symbol G#/Ab;
#X msg 554 325 symbol A;
#X msg 581 352 symbol A#/Bb;
#X msg 602 382 symbol B;
#X obj 351 37 sel 0 1 2 3 4 5 6 7 8 9 10 11;
#X obj 356 3 r key;
#X connect 1 0 0 0;
#X connect 2 0 0 0;
#X connect 3 0 0 0;
#X connect 4 0 0 0;
#X connect 5 0 0 0;
#X connect 6 0 0 0;
#X connect 7 0 0 0;
#X connect 8 0 0 0;
#X connect 9 0 0 0;
#X connect 10 0 0 0;
#X connect 11 0 0 0;
#X connect 12 0 0 0;
#X connect 13 0 2 0;
#X connect 13 1 3 0;
#X connect 13 2 4 0;
#X connect 13 3 5 0;
#X connect 13 4 6 0;
#X connect 13 5 1 0;
#X connect 13 6 7 0;
#X connect 13 7 8 0;
#X connect 13 8 9 0;
#X connect 13 9 10 0;
#X connect 13 10 11 0;
#X connect 13 11 12 0;
#X connect 14 0 13 0;
#X coords 0 -1 1 1 140 60 1 0 0;
#X restore 43 302 pd Key;
#X obj 724 296 hradio 19 1 0 10 %-velo-2 empty empty 0 -10 0 12 #fcfcfc #000000 #000000 0;
#X floatatom 942 296 5 0 127 0 - - velocity-low-2 0;
#X floatatom 999 296 5 0 127 0 - - velocity-high-2 0;
#X floatatom 1088 296 5 0 0 0 - current_velo-2 - 0;
#X text 1083 269 current velo;
#X obj 44 237 chord_generator;
#N canvas 67 106 1403 764 HARMONY 0;
#X floatatom -154 -144 5 0 0 0 - - - 0;
#X floatatom -152 -87 5 0 0 0 - - - 0;
#X obj -83 -13 makenote;
#X obj -49 -93 velocity_control;
#X obj 65 -54 s current_velo-2;
#X obj -17 -163 r %-velo-2;
#X obj 19 -132 r velocity-high-2;
#X obj 134 -102 r velocity-low-2;
#X obj -80 -99 bng 19 250 50 0 empty empty empty 0 -10 0 12 #fcfcfc #000000 #000000;
#X obj -47 -129 r zero;
#X obj -14 -59 r metro;
#X floatatom -1 -28 5 0 0 0 - - - 0;
#X obj -159 -167 r root_chords;
#X floatatom 324 -90 5 0 0 0 - - - 0;
#X floatatom 326 -33 5 0 0 0 - - - 0;
#X obj 396 -2 makenote;
#X obj 425 -64 velocity_control;
#X obj 539 -25 s current_velo-2;
#X obj 457 -134 r %-velo-2;
#X obj 493 -103 r velocity-high-2;
#X obj 608 -73 r velocity-low-2;
#X obj 394 -70 bng 19 250 50 0 empty empty empty 0 -10 0 12 #fcfcfc #000000 #000000;
#X obj 387 -98 r zero;
#X obj 460 -30 r metro;
#X floatatom 473 1 5 0 0 0 - - - 0;
#X floatatom 280 -246 5 0 0 0 - - - 0;
#X obj 327 -210 +;
#X obj 353 -250 t b f;
#X floatatom 330 -177 5 0 0 0 - - - 0;
#X obj 280 -318 scale_loader1;
#X floatatom 285 -371 5 0 0 0 - - - 0;
#X obj 516 -339 r key_info;
#X obj 282 -345 + 4;
#X floatatom 518 -313 5 0 0 0 - - - 0;
#X obj 405 -377 r scale_info;
#X floatatom 405 -199 5 0 0 0 - - - 0;
#X obj 400 -222 r root_chords;
#X obj 397 -172 t b f;
#X obj 355 -143 +;
#X obj 1 -1 * 4;
#X floatatom 1 24 5 0 0 0 - - - 0;
#X obj 478 29 * 4;
#X floatatom 478 54 5 0 0 0 - - - 0;
#X floatatom 806 -126 5 0 0 0 - - - 0;
#X floatatom 808 -69 5 0 0 0 - - - 0;
#X obj 878 -38 makenote;
#X obj 907 -100 velocity_control;
#X obj 1021 -61 s current_velo-2;
#X obj 939 -170 r %-velo-2;
#X obj 975 -139 r velocity-high-2;
#X obj 1090 -109 r velocity-low-2;
#X obj 876 -106 bng 19 250 50 0 empty empty empty 0 -10 0 12 #fcfcfc #000000 #000000;
#X obj 869 -134 r zero;
#X obj 942 -66 r metro;
#X floatatom 955 -35 5 0 0 0 - - - 0;
#X floatatom 762 -282 5 0 0 0 - - - 0;
#X obj 809 -246 +;
#X obj 835 -286 t b f;
#X floatatom 812 -213 5 0 0 0 - - - 0;
#X obj 762 -354 scale_loader1;
#X floatatom 767 -407 5 0 0 0 - - - 0;
#X obj 998 -375 r key_info;
#X floatatom 1000 -349 5 0 0 0 - - - 0;
#X obj 887 -413 r scale_info;
#X floatatom 887 -235 5 0 0 0 - - - 0;
#X obj 882 -258 r root_chords;
#X obj 879 -208 t b f;
#X obj 837 -179 +;
#X obj 960 -7 * 4;
#X floatatom 960 18 5 0 0 0 - - - 0;
#X obj 764 -381 + 2;
#X obj 808 -98 - 12;
#X obj 326 -62 - 24;
#X obj -118 -43 spigot;
#X obj 121 125 tgl 19 0 empty empty empty 0 -10 0 12 #fcfcfc #000000 #000000 0 1;
#X obj 297 28 spigot;
#X obj 304 125 tgl 19 0 empty empty empty 0 -10 0 12 #fcfcfc #000000 #000000 0 1;
#X obj 817 -34 spigot;
#X obj 488 125 tgl 19 0 empty empty empty 0 -10 0 12 #fcfcfc #000000 #000000 0 1;
#X obj 319 166 tgl 19 0 empty grand empty 0 -10 0 12 #fcfcfc #000000 #000000 0 1;
#X text 265 165 MASTER;
#X obj -152 -116 - 48;
#X obj 117 66 r b;
#X obj 302 70 r t;
#X obj 489 77 r a;
#X obj -94 31 noteout 3;
#X obj 380 60 noteout 4;
#X obj 862 24 noteout 5;
#X obj -91 -131 r grand;
#X obj 397 -124 r grand;
#X obj 875 -158 r grand;
#X connect 0 0 81 0;
#X connect 1 0 73 0;
#X connect 2 0 85 0;
#X connect 2 1 85 1;
#X connect 3 0 2 1;
#X connect 3 0 4 0;
#X connect 5 0 3 1;
#X connect 6 0 3 2;
#X connect 7 0 3 3;
#X connect 8 0 3 0;
#X connect 9 0 8 0;
#X connect 10 0 11 0;
#X connect 11 0 39 0;
#X connect 12 0 0 0;
#X connect 13 0 72 0;
#X connect 14 0 75 0;
#X connect 15 0 86 0;
#X connect 15 1 86 1;
#X connect 16 0 15 1;
#X connect 16 0 17 0;
#X connect 18 0 16 1;
#X connect 19 0 16 2;
#X connect 20 0 16 3;
#X connect 21 0 16 0;
#X connect 22 0 21 0;
#X connect 23 0 24 0;
#X connect 24 0 41 0;
#X connect 25 0 26 0;
#X connect 26 0 28 0;
#X connect 27 0 26 0;
#X connect 27 1 26 1;
#X connect 28 0 38 0;
#X connect 29 0 25 0;
#X connect 30 0 32 0;
#X connect 31 0 33 0;
#X connect 32 0 29 0;
#X connect 33 0 27 0;
#X connect 34 0 30 0;
#X connect 35 0 37 0;
#X connect 36 0 35 0;
#X connect 37 0 38 0;
#X connect 37 1 38 1;
#X connect 38 0 13 0;
#X connect 39 0 40 0;
#X connect 40 0 2 2;
#X connect 41 0 42 0;
#X connect 42 0 15 2;
#X connect 43 0 71 0;
#X connect 44 0 77 0;
#X connect 45 0 87 0;
#X connect 45 1 87 1;
#X connect 46 0 45 1;
#X connect 46 0 47 0;
#X connect 48 0 46 1;
#X connect 49 0 46 2;
#X connect 50 0 46 3;
#X connect 51 0 46 0;
#X connect 52 0 51 0;
#X connect 53 0 54 0;
#X connect 54 0 68 0;
#X connect 55 0 56 0;
#X connect 56 0 58 0;
#X connect 57 0 56 0;
#X connect 57 1 56 1;
#X connect 58 0 67 0;
#X connect 59 0 55 0;
#X connect 60 0 70 0;
#X connect 61 0 62 0;
#X connect 62 0 57 0;
#X connect 63 0 60 0;
#X connect 64 0 66 0;
#X connect 65 0 64 0;
#X connect 66 0 67 0;
#X connect 66 1 67 1;
#X connect 67 0 43 0;
#X connect 68 0 69 0;
#X connect 69 0 45 2;
#X connect 70 0 59 0;
#X connect 71 0 44 0;
#X connect 72 0 14 0;
#X connect 73 0 2 0;
#X connect 74 0 73 1;
#X connect 75 0 15 0;
#X connect 76 0 75 1;
#X connect 77 0 45 0;
#X connect 78 0 77 1;
#X connect 79 0 74 0;
#X connect 79 0 76 0;
#X connect 79 0 78 0;
#X connect 81 0 1 0;
#X connect 82 0 74 0;
#X connect 83 0 76 0;
#X connect 84 0 78 0;
#X connect 88 0 8 0;
#X connect 89 0 21 0;
#X connect 90 0 51 0;
#X coords 0 -1 1 1 500 100 1 100 100;
#X restore 203 251 pd HARMONY;
#N canvas 371 46 1172 825 MELODY_1 0;
#X obj 283 -1113 random 9;
#X floatatom 271 -986 5 0 0 0 - - - 0;
#X obj 222 -928 bng 19 250 50 0 empty empty empty 0 -10 0 12 #fcfcfc #000000 #000000;
#X obj 280 -926 bng 19 250 50 0 empty empty empty 0 -10 0 12 #fcfcfc #000000 #000000;
#X obj 335 -926 bng 19 250 50 0 empty empty empty 0 -10 0 12 #fcfcfc #000000 #000000;
#X obj 384 -925 bng 19 250 50 0 empty empty empty 0 -10 0 12 #fcfcfc #000000 #000000;
#X text 156 -926 DEVISION;
#X obj 52 -600 bng 19 250 50 0 empty empty empty 0 -10 0 12 #fcfcfc #000000 #000000;
#X floatatom 161 -834 5 0 0 0 - - - 0;
#X floatatom 214 -835 5 0 0 0 - - - 0;
#X obj 214 -807 t b f;
#X floatatom 185 -728 5 0 0 0 - - - 0;
#X obj 190 -768 /;
#X msg 212 -898 1;
#X msg 280 -900 2;
#X msg 335 -901 4;
#X msg 387 -900 3;
#X obj -143 -956 tgl 19 0 empty empty empty 0 -10 0 12 #fcfcfc #000000 #000000 0 1;
#X obj 283 -1140 bng 19 250 50 0 empty empty empty 0 -10 0 12 #fcfcfc #000000 #000000;
#X obj 278 -1056 bng 19 250 50 0 empty empty empty 0 -10 0 12 #fcfcfc #000000 #000000;
#X obj 283 -1089 moses 4;
#X obj 12 -884 bng 19 250 50 0 empty empty empty 0 -10 0 12 #fcfcfc #000000 #000000;
#X text 12 -945 tempo;
#X obj 13 -922 metro;
#X obj 66 -656 metro;
#X text -28 -657 note divison;
#X obj -214 -603 f;
#X obj -177 -603 + 1;
#X floatatom 42 -460 5 0 0 0 - - - 0;
#X obj -251 -188 s zero;
#X obj 112 -241 bng 19 250 50 0 empty empty empty 0 -10 0 12 #00ff04 #000000 #000000;
#X obj 234 -242 bng 19 250 50 0 empty empty empty 0 -10 0 12 #00ff04 #000000 #000000;
#X obj 363 -241 bng 19 250 50 0 empty empty empty 0 -10 0 12 #00ff04 #000000 #000000;
#X obj 502 -241 bng 19 250 50 0 empty empty empty 0 -10 0 12 #00ff04 #0f4710 #000000;
#X obj 251 -110 f;
#X obj 364 -110 f;
#X obj 500 -95 f;
#X floatatom 527 -241 5 0 0 0 - - - 0;
#X floatatom 389 -241 5 0 0 0 - - - 0;
#X floatatom 259 -242 5 0 0 0 - - - 0;
#X obj 140 -118 f;
#X floatatom 138 -241 5 0 0 0 - - - 0;
#X obj 182 -242 bng 19 250 50 0 empty empty empty 0 -10 0 12 #ff0400 #000000 #000000;
#X floatatom 45 -377 5 0 0 0 - - - 0;
#X obj 246 -398 random 9;
#X obj 304 -242 bng 19 250 50 0 empty empty empty 0 -10 0 12 #ff0400 #000000 #000000;
#X obj 372 -397 random 9;
#X obj 507 -400 random 9;
#X obj 431 -242 bng 19 250 50 0 empty empty empty 0 -10 0 12 #ff0400 #000000 #000000;
#X obj 568 -241 bng 19 250 50 0 empty empty empty 0 -10 0 12 #ff0400 #000000 #000000;
#X msg 716 -95 stop;
#X obj 246 -373 moses 1;
#X obj 372 -372 moses 1;
#X obj 507 -375 moses 1;
#X floatatom 664 -291 5 0 0 0 - - - 0;
#X obj 660 -318 r %-rests;
#X obj 362 74 noteout 1;
#X obj 297 7 +;
#X obj 341 38 makenote, f 21;
#X floatatom 363 117 5 0 0 0 - - - 0;
#X obj 73 -541 f;
#X obj 110 -541 + 1;
#X obj 242 -42 r root;
#X obj 73 -512 mod 4;
#X obj 99 -605 s note-pulse;
#X obj -254 -227 bng 19 250 50 0 empty empty empty 0 -10 0 12 #fcfcfc #000000 #000000;
#X obj 196 -690 s note-duration;
#X obj 101 -633 bng 19 250 50 0 empty empty empty 0 -10 0 12 #fcfcfc #000000 #000000;
#X obj 254 -299 r random_note-2;
#X obj 389 -297 r random_note-3;
#X obj 512 -300 r random_note-4;
#X obj -214 -574 mod 4;
#X obj 512 62 r note-duration;
#X obj -216 -537 + 1;
#X floatatom 91 -460 5 0 0 0 - - - 0;
#X obj 90 -484 + 1;
#X obj 152 -438 sel 1 2 3 4, f 75;
#X obj 234 -997 + 1;
#X obj 159 -859 r metro;
#X floatatom 207 51 5 0 0 0 - - - 0;
#X floatatom 320 -52 5 0 0 0 - - - 0;
#X obj 320 -22 t b f;
#X obj -149 -983 r 1-tempo;
#X obj 270 -963 sel 1 2 3 4, f 34;
#X obj 12 38 note-player;
#X obj -192 -251 sel 1 2 3 4;
#X obj -183 -872 sel 0;
#X msg -254 -750 1;
#X obj 388 4 velocity_control;
#X symbolatom 412 111 12 0 0 0 - - - 24;
#X obj 419 -61 r %-velo-1;
#X obj 378 -36 r note-pulse;
#X obj 495 -42 r velocity-high-1;
#X obj 668 21 r velocity-low-1;
#X obj 514 30 s current_velo-1;
#X obj 367 -4 bng 19 250 50 0 empty empty empty 0 -10 0 12 #fcfcfc #000000 #000000;
#X floatatom 209 -2 5 0 0 0 - - - 0;
#X obj 271 -1017 random 3;
#X obj -173 -214 bng 19 250 50 0 empty empty empty 0 -10 0 12 #fcfcfc #000000 #000000;
#X obj -141 -214 bng 19 250 50 0 empty empty empty 0 -10 0 12 #fcfcfc #000000 #000000;
#X obj -113 -215 bng 19 250 50 0 empty empty empty 0 -10 0 12 #fcfcfc #000000 #000000;
#X obj 285 48 spigot;
#X obj 117 119 tgl 19 0 empty empty empty 0 -10 0 12 #fcfcfc #000000 #000000 0 1;
#X obj 71 73 r grand;
#X obj 133 74 r m1;
#X obj 410 160 sel 10;
#X msg 401 207 symbol FREE_JAZZ;
#X msg 463 182 symbol SYNTH_ORGAN;
#X obj 137 -278 r random_note-1;
#X obj 122 -387 random 9;
#X obj 122 -362 moses 1;
#X connect 0 0 20 0;
#X connect 1 0 83 0;
#X connect 2 0 13 0;
#X connect 3 0 14 0;
#X connect 4 0 15 0;
#X connect 5 0 16 0;
#X connect 7 0 60 0;
#X connect 8 0 12 0;
#X connect 8 0 23 1;
#X connect 9 0 10 0;
#X connect 10 0 12 0;
#X connect 10 1 12 1;
#X connect 11 0 24 1;
#X connect 11 0 66 0;
#X connect 12 0 11 0;
#X connect 13 0 9 0;
#X connect 14 0 9 0;
#X connect 15 0 9 0;
#X connect 16 0 9 0;
#X connect 17 0 23 0;
#X connect 17 0 24 0;
#X connect 17 0 86 0;
#X connect 18 0 0 0;
#X connect 19 0 97 0;
#X connect 20 0 19 0;
#X connect 21 0 26 0;
#X connect 23 0 21 0;
#X connect 23 0 18 0;
#X connect 24 0 7 0;
#X connect 24 0 67 0;
#X connect 26 0 27 0;
#X connect 26 0 71 0;
#X connect 27 0 26 1;
#X connect 28 0 85 0;
#X connect 30 0 40 0;
#X connect 31 0 34 0;
#X connect 32 0 35 0;
#X connect 33 0 36 0;
#X connect 34 0 80 0;
#X connect 35 0 80 0;
#X connect 36 0 80 0;
#X connect 37 0 36 1;
#X connect 38 0 35 1;
#X connect 39 0 34 1;
#X connect 40 0 80 0;
#X connect 41 0 40 1;
#X connect 42 0 50 0;
#X connect 44 0 51 0;
#X connect 45 0 50 0;
#X connect 46 0 52 0;
#X connect 47 0 53 0;
#X connect 48 0 50 0;
#X connect 49 0 50 0;
#X connect 50 0 58 0;
#X connect 51 0 45 0;
#X connect 51 1 31 0;
#X connect 52 0 48 0;
#X connect 52 1 32 0;
#X connect 53 0 49 0;
#X connect 53 1 33 0;
#X connect 55 0 51 1;
#X connect 55 0 52 1;
#X connect 55 0 53 1;
#X connect 55 0 54 0;
#X connect 55 0 110 1;
#X connect 57 0 79 0;
#X connect 57 0 101 0;
#X connect 58 0 56 0;
#X connect 58 1 56 1;
#X connect 59 0 56 2;
#X connect 59 0 105 0;
#X connect 60 0 61 0;
#X connect 60 0 63 0;
#X connect 61 0 60 1;
#X connect 62 0 57 0;
#X connect 62 0 96 0;
#X connect 63 0 75 0;
#X connect 65 0 29 0;
#X connect 67 0 64 0;
#X connect 68 0 39 0;
#X connect 69 0 38 0;
#X connect 70 0 37 0;
#X connect 71 0 73 0;
#X connect 72 0 58 2;
#X connect 73 0 28 0;
#X connect 74 0 76 0;
#X connect 75 0 74 0;
#X connect 76 0 109 0;
#X connect 76 1 44 0;
#X connect 76 2 46 0;
#X connect 76 3 47 0;
#X connect 77 0 1 0;
#X connect 78 0 8 0;
#X connect 80 0 81 0;
#X connect 81 0 57 0;
#X connect 81 1 57 1;
#X connect 82 0 17 0;
#X connect 83 0 2 0;
#X connect 83 1 3 0;
#X connect 83 2 4 0;
#X connect 83 3 5 0;
#X connect 85 0 29 0;
#X connect 85 1 98 0;
#X connect 85 2 99 0;
#X connect 85 3 100 0;
#X connect 86 0 87 0;
#X connect 87 0 74 0;
#X connect 87 0 28 0;
#X connect 87 0 26 1;
#X connect 87 0 60 1;
#X connect 88 0 58 1;
#X connect 88 0 94 0;
#X connect 90 0 88 1;
#X connect 91 0 95 0;
#X connect 92 0 88 2;
#X connect 93 0 88 3;
#X connect 95 0 88 0;
#X connect 97 0 77 0;
#X connect 101 0 58 0;
#X connect 102 0 101 1;
#X connect 103 0 102 0;
#X connect 104 0 102 0;
#X connect 105 0 106 0;
#X connect 105 1 107 0;
#X connect 106 0 89 0;
#X connect 107 0 89 0;
#X connect 108 0 41 0;
#X connect 109 0 110 0;
#X connect 110 0 42 0;
#X connect 110 1 30 0;
#X coords 0 -1 1 1 500 50 1 100 100;
#X restore 201 105 pd MELODY_1;
#X f 51;
#N canvas 253 37 1254 825 MELODY_2 0;
#X obj 283 -1113 random 9;
#X floatatom 271 -986 5 0 0 0 - - - 0;
#X obj 222 -928 bng 19 250 50 0 empty empty empty 0 -10 0 12 #fcfcfc #000000 #000000;
#X obj 280 -926 bng 19 250 50 0 empty empty empty 0 -10 0 12 #fcfcfc #000000 #000000;
#X obj 335 -926 bng 19 250 50 0 empty empty empty 0 -10 0 12 #fcfcfc #000000 #000000;
#X obj 384 -925 bng 19 250 50 0 empty empty empty 0 -10 0 12 #fcfcfc #000000 #000000;
#X text 156 -926 DEVISION;
#X obj 52 -600 bng 19 250 50 0 empty empty empty 0 -10 0 12 #fcfcfc #000000 #000000;
#X floatatom 161 -834 5 0 0 0 - - - 0;
#X floatatom 214 -835 5 0 0 0 - - - 0;
#X obj 214 -807 t b f;
#X floatatom 185 -728 5 0 0 0 - - - 0;
#X obj 190 -768 /;
#X msg 212 -898 1;
#X msg 280 -900 2;
#X msg 335 -901 4;
#X msg 387 -900 3;
#X obj -143 -956 tgl 19 0 empty empty empty 0 -10 0 12 #fcfcfc #000000 #000000 0 1;
#X obj 283 -1140 bng 19 250 50 0 empty empty empty 0 -10 0 12 #fcfcfc #000000 #000000;
#X obj 278 -1056 bng 19 250 50 0 empty empty empty 0 -10 0 12 #fcfcfc #000000 #000000;
#X obj 283 -1089 moses 4;
#X obj 12 -884 bng 19 250 50 0 empty empty empty 0 -10 0 12 #fcfcfc #000000 #000000;
#X text 12 -945 tempo;
#X obj 13 -922 metro;
#X obj 66 -656 metro;
#X text -28 -657 note divison;
#X obj -214 -603 f;
#X obj -177 -603 + 1;
#X floatatom 42 -460 5 0 0 0 - - - 0;
#X obj 112 -241 bng 19 250 50 0 empty empty empty 0 -10 0 12 #00ff04 #000000 #000000;
#X obj 234 -242 bng 19 250 50 0 empty empty empty 0 -10 0 12 #00ff04 #000000 #000000;
#X obj 363 -241 bng 19 250 50 0 empty empty empty 0 -10 0 12 #00ff04 #000000 #000000;
#X obj 502 -241 bng 19 250 50 0 empty empty empty 0 -10 0 12 #00ff04 #0f4710 #000000;
#X obj 251 -110 f;
#X obj 364 -110 f;
#X obj 500 -95 f;
#X floatatom 527 -241 5 0 0 0 - - - 0;
#X floatatom 389 -241 5 0 0 0 - - - 0;
#X floatatom 259 -242 5 0 0 0 - - - 0;
#X obj 118 -165 f;
#X floatatom 138 -241 5 0 0 0 - - - 0;
#X obj 182 -242 bng 19 250 50 0 empty empty empty 0 -10 0 12 #ff0400 #000000 #000000;
#X obj 246 -398 random 9;
#X obj 304 -242 bng 19 250 50 0 empty empty empty 0 -10 0 12 #ff0400 #000000 #000000;
#X obj 372 -397 random 9;
#X obj 507 -400 random 9;
#X obj 431 -242 bng 19 250 50 0 empty empty empty 0 -10 0 12 #ff0400 #000000 #000000;
#X obj 568 -241 bng 19 250 50 0 empty empty empty 0 -10 0 12 #ff0400 #000000 #000000;
#X msg 716 -95 stop;
#X obj 246 -373 moses 1;
#X obj 372 -372 moses 1;
#X obj 507 -375 moses 1;
#X floatatom 664 -291 5 0 0 0 - - - 0;
#X obj 297 7 +;
#X obj 341 38 makenote, f 21;
#X obj 73 -541 f;
#X obj 110 -541 + 1;
#X obj 73 -512 mod 4;
#X obj 101 -633 bng 19 250 50 0 empty empty empty 0 -10 0 12 #fcfcfc #000000 #000000;
#X obj -214 -574 mod 4;
#X obj 512 62 r note-duration;
#X obj -216 -537 + 1;
#X floatatom 91 -460 5 0 0 0 - - - 0;
#X obj 90 -484 + 1;
#X obj 152 -438 sel 1 2 3 4, f 75;
#X obj 234 -997 + 1;
#X obj 159 -859 r metro;
#X floatatom 207 51 5 0 0 0 - - - 0;
#X floatatom 320 -52 5 0 0 0 - - - 0;
#X obj 320 -22 t b f;
#X obj 270 -963 sel 1 2 3 4, f 34;
#X obj -183 -872 sel 0;
#X msg -254 -750 1;
#X obj 388 4 velocity_control;
#X obj 378 -36 r note-pulse;
#X obj 367 -4 bng 19 250 50 0 empty empty empty 0 -10 0 12 #fcfcfc #000000 #000000;
#X floatatom 209 -2 5 0 0 0 - - - 0;
#X obj 271 -1017 random 3;
#X obj 268 35 spigot;
#X obj 117 119 tgl 19 0 empty empty empty 0 -10 0 12 #fcfcfc #000000 #000000 0 1;
#N canvas 80 44 1356 771 note_player 0;
#X floatatom 258 426 5 0 0 0 - - - 0;
#X obj 100 28 r note-pulse;
#X obj 117 59 bng 19 250 50 0 empty empty empty 0 -10 0 12 #fcfcfc #000000 #000000;
#X floatatom 469 202 5 0 0 0 - - - 0;
#X obj 464 88 random 9;
#X obj 470 172 random 8;
#N canvas 235 59 1218 804 scale_loader 0;
#X obj 651 563 r p1;
#X obj 706 501 r p2;
#X obj 758 450 r p3;
#X obj 809 382 r p4;
#X obj 860 332 r p5;
#X obj 903 291 r p6;
#X obj 918 250 r p7;
#X obj 615 564 f;
#X obj 676 501 f;
#X obj 727 451 f;
#X obj 778 382 f;
#X obj 830 332 f;
#X obj 871 290 f;
#X obj 887 250 f;
#X obj 498 276 bng 19 250 50 0 empty load empty 0 -10 0 12 #fcfcfc #000000 #000000;
#X obj 582 564 f;
#X obj 643 501 f;
#X obj 694 451 f;
#X obj 745 382 f;
#X obj 797 332 f;
#X obj 838 290 f;
#X obj 854 250 f;
#X floatatom 1015 362 2 0 0 0 - - - 0;
#X floatatom 982 362 2 0 0 0 - - - 0;
#X obj 592 119 inlet;
#X obj 597 686 outlet;
#X obj 591 201 sel 0 1 2 3 4 5 6 7, f 50;
#X obj 928 226 f;
#X obj 895 226 f;
#X obj 959 226 r p8;
#X floatatom 1015 262 2 0 0 0 - - - 0;
#X floatatom 982 262 2 0 0 0 - - - 0;
#X floatatom 1016 293 2 0 0 0 - - - 0;
#X floatatom 983 293 2 0 0 0 - - - 0;
#X floatatom 1013 328 2 0 0 0 - - - 0;
#X floatatom 980 328 2 0 0 0 - - - 0;
#X floatatom 1008 565 2 0 0 0 - - - 0;
#X floatatom 975 565 2 0 0 0 - - - 0;
#X floatatom 1012 425 2 0 0 0 - - - 0;
#X floatatom 979 425 2 0 0 0 - - - 0;
#X floatatom 1013 456 2 0 0 0 - - - 0;
#X floatatom 980 456 2 0 0 0 - - - 0;
#X floatatom 1006 531 2 0 0 0 - - - 0;
#X floatatom 973 531 2 0 0 0 - - - 0;
#X floatatom 596 153 5 0 0 0 - - - 0;
#X connect 0 0 7 1;
#X connect 1 0 8 1;
#X connect 2 0 9 1;
#X connect 3 0 10 1;
#X connect 4 0 11 1;
#X connect 5 0 12 1;
#X connect 6 0 13 1;
#X connect 7 0 15 1;
#X connect 7 0 36 0;
#X connect 8 0 16 1;
#X connect 8 0 42 0;
#X connect 9 0 17 1;
#X connect 9 0 40 0;
#X connect 10 0 18 1;
#X connect 10 0 38 0;
#X connect 11 0 19 1;
#X connect 11 0 22 0;
#X connect 12 0 20 1;
#X connect 12 0 34 0;
#X connect 13 0 21 1;
#X connect 13 0 32 0;
#X connect 14 0 7 0;
#X connect 14 0 8 0;
#X connect 14 0 9 0;
#X connect 14 0 10 0;
#X connect 14 0 11 0;
#X connect 14 0 12 0;
#X connect 14 0 13 0;
#X connect 14 0 27 0;
#X connect 15 0 25 0;
#X connect 15 0 37 0;
#X connect 16 0 25 0;
#X connect 16 0 43 0;
#X connect 17 0 25 0;
#X connect 17 0 41 0;
#X connect 18 0 25 0;
#X connect 18 0 39 0;
#X connect 19 0 23 0;
#X connect 19 0 25 0;
#X connect 20 0 25 0;
#X connect 20 0 35 0;
#X connect 21 0 25 0;
#X connect 21 0 33 0;
#X connect 24 0 44 0;
#X connect 26 0 15 0;
#X connect 26 1 16 0;
#X connect 26 2 17 0;
#X connect 26 3 18 0;
#X connect 26 4 19 0;
#X connect 26 5 20 0;
#X connect 26 6 21 0;
#X connect 26 7 28 0;
#X connect 27 0 28 1;
#X connect 27 0 30 0;
#X connect 28 0 25 0;
#X connect 28 0 31 0;
#X connect 29 0 27 1;
#X connect 44 0 26 0;
#X restore 464 229 pd scale_loader;
#X obj 469 146 bng 19 250 50 0 empty empty empty 0 -10 0 12 #fcfcfc #000000 #000000;
#X obj 463 115 moses 5;
#X obj 352 371 -;
#X obj 354 398 abs;
#X floatatom 356 426 5 0 0 0 - - - 0;
#X floatatom 465 258 5 0 0 0 - - - 0;
#X obj 410 310 t b f;
#X floatatom 759 201 5 0 0 0 - - - 0;
#X obj 754 87 random 9;
#X obj 760 171 random 8;
#N canvas 235 59 1218 804 scale_loader 0;
#X obj 651 563 r p1;
#X obj 706 501 r p2;
#X obj 758 450 r p3;
#X obj 809 382 r p4;
#X obj 860 332 r p5;
#X obj 903 291 r p6;
#X obj 918 250 r p7;
#X obj 615 564 f;
#X obj 676 501 f;
#X obj 727 451 f;
#X obj 778 382 f;
#X obj 830 332 f;
#X obj 871 290 f;
#X obj 887 250 f;
#X obj 498 276 bng 19 250 50 0 empty load empty 0 -10 0 12 #fcfcfc #000000 #000000;
#X obj 582 564 f;
#X obj 643 501 f;
#X obj 694 451 f;
#X obj 745 382 f;
#X obj 797 332 f;
#X obj 838 290 f;
#X obj 854 250 f;
#X floatatom 1015 362 2 0 0 0 - - - 0;
#X floatatom 982 362 2 0 0 0 - - - 0;
#X obj 592 119 inlet;
#X obj 597 686 outlet;
#X obj 591 201 sel 0 1 2 3 4 5 6 7, f 50;
#X obj 928 226 f;
#X obj 895 226 f;
#X obj 959 226 r p8;
#X floatatom 1015 262 2 0 0 0 - - - 0;
#X floatatom 982 262 2 0 0 0 - - - 0;
#X floatatom 1016 293 2 0 0 0 - - - 0;
#X floatatom 983 293 2 0 0 0 - - - 0;
#X floatatom 1013 328 2 0 0 0 - - - 0;
#X floatatom 980 328 2 0 0 0 - - - 0;
#X floatatom 1008 565 2 0 0 0 - - - 0;
#X floatatom 975 565 2 0 0 0 - - - 0;
#X floatatom 1012 425 2 0 0 0 - - - 0;
#X floatatom 979 425 2 0 0 0 - - - 0;
#X floatatom 1013 456 2 0 0 0 - - - 0;
#X floatatom 980 456 2 0 0 0 - - - 0;
#X floatatom 1006 531 2 0 0 0 - - - 0;
#X floatatom 973 531 2 0 0 0 - - - 0;
#X floatatom 596 153 5 0 0 0 - - - 0;
#X connect 0 0 7 1;
#X connect 1 0 8 1;
#X connect 2 0 9 1;
#X connect 3 0 10 1;
#X connect 4 0 11 1;
#X connect 5 0 12 1;
#X connect 6 0 13 1;
#X connect 7 0 15 1;
#X connect 7 0 36 0;
#X connect 8 0 16 1;
#X connect 8 0 42 0;
#X connect 9 0 17 1;
#X connect 9 0 40 0;
#X connect 10 0 18 1;
#X connect 10 0 38 0;
#X connect 11 0 19 1;
#X connect 11 0 22 0;
#X connect 12 0 20 1;
#X connect 12 0 34 0;
#X connect 13 0 21 1;
#X connect 13 0 32 0;
#X connect 14 0 7 0;
#X connect 14 0 8 0;
#X connect 14 0 9 0;
#X connect 14 0 10 0;
#X connect 14 0 11 0;
#X connect 14 0 12 0;
#X connect 14 0 13 0;
#X connect 14 0 27 0;
#X connect 15 0 25 0;
#X connect 15 0 37 0;
#X connect 16 0 25 0;
#X connect 16 0 43 0;
#X connect 17 0 25 0;
#X connect 17 0 41 0;
#X connect 18 0 25 0;
#X connect 18 0 39 0;
#X connect 19 0 23 0;
#X connect 19 0 25 0;
#X connect 20 0 25 0;
#X connect 20 0 35 0;
#X connect 21 0 25 0;
#X connect 21 0 33 0;
#X connect 24 0 44 0;
#X connect 26 0 15 0;
#X connect 26 1 16 0;
#X connect 26 2 17 0;
#X connect 26 3 18 0;
#X connect 26 4 19 0;
#X connect 26 5 20 0;
#X connect 26 6 21 0;
#X connect 26 7 28 0;
#X connect 27 0 28 1;
#X connect 27 0 30 0;
#X connect 28 0 25 0;
#X connect 28 0 31 0;
#X connect 29 0 27 1;
#X connect 44 0 26 0;
#X restore 754 228 pd scale_loader;
#X obj 759 145 bng 19 250 50 0 empty empty empty 0 -10 0 12 #fcfcfc #000000 #000000;
#X obj 753 114 moses 5;
#X obj 769 421 spigot;
#X obj 822 384 tgl 19 0 empty empty empty 0 -10 0 12 #fcfcfc #000000 #000000 0 1;
#X obj 642 370 -;
#X obj 644 397 abs;
#X floatatom 646 425 5 0 0 0 - - - 0;
#X obj 825 358 <= 4;
#X floatatom 755 257 5 0 0 0 - - - 0;
#X obj 700 309 t b f;
#X floatatom 771 572 5 0 0 0 - - - 0;
#X floatatom 1066 186 5 0 0 0 - - - 0;
#X obj 1061 72 random 9;
#X obj 1067 156 random 8;
#N canvas 235 59 1218 804 scale_loader 0;
#X obj 651 563 r p1;
#X obj 706 501 r p2;
#X obj 758 450 r p3;
#X obj 809 382 r p4;
#X obj 860 332 r p5;
#X obj 903 291 r p6;
#X obj 918 250 r p7;
#X obj 615 564 f;
#X obj 676 501 f;
#X obj 727 451 f;
#X obj 778 382 f;
#X obj 830 332 f;
#X obj 871 290 f;
#X obj 887 250 f;
#X obj 498 276 bng 19 250 50 0 empty load empty 0 -10 0 12 #fcfcfc #000000 #000000;
#X obj 582 564 f;
#X obj 643 501 f;
#X obj 694 451 f;
#X obj 745 382 f;
#X obj 797 332 f;
#X obj 838 290 f;
#X obj 854 250 f;
#X floatatom 1015 362 2 0 0 0 - - - 0;
#X floatatom 982 362 2 0 0 0 - - - 0;
#X obj 592 119 inlet;
#X obj 597 686 outlet;
#X obj 591 201 sel 0 1 2 3 4 5 6 7, f 50;
#X obj 928 226 f;
#X obj 895 226 f;
#X obj 959 226 r p8;
#X floatatom 1015 262 2 0 0 0 - - - 0;
#X floatatom 982 262 2 0 0 0 - - - 0;
#X floatatom 1016 293 2 0 0 0 - - - 0;
#X floatatom 983 293 2 0 0 0 - - - 0;
#X floatatom 1013 328 2 0 0 0 - - - 0;
#X floatatom 980 328 2 0 0 0 - - - 0;
#X floatatom 1008 565 2 0 0 0 - - - 0;
#X floatatom 975 565 2 0 0 0 - - - 0;
#X floatatom 1012 425 2 0 0 0 - - - 0;
#X floatatom 979 425 2 0 0 0 - - - 0;
#X floatatom 1013 456 2 0 0 0 - - - 0;
#X floatatom 980 456 2 0 0 0 - - - 0;
#X floatatom 1006 531 2 0 0 0 - - - 0;
#X floatatom 973 531 2 0 0 0 - - - 0;
#X floatatom 596 153 5 0 0 0 - - - 0;
#X connect 0 0 7 1;
#X connect 1 0 8 1;
#X connect 2 0 9 1;
#X connect 3 0 10 1;
#X connect 4 0 11 1;
#X connect 5 0 12 1;
#X connect 6 0 13 1;
#X connect 7 0 15 1;
#X connect 7 0 36 0;
#X connect 8 0 16 1;
#X connect 8 0 42 0;
#X connect 9 0 17 1;
#X connect 9 0 40 0;
#X connect 10 0 18 1;
#X connect 10 0 38 0;
#X connect 11 0 19 1;
#X connect 11 0 22 0;
#X connect 12 0 20 1;
#X connect 12 0 34 0;
#X connect 13 0 21 1;
#X connect 13 0 32 0;
#X connect 14 0 7 0;
#X connect 14 0 8 0;
#X connect 14 0 9 0;
#X connect 14 0 10 0;
#X connect 14 0 11 0;
#X connect 14 0 12 0;
#X connect 14 0 13 0;
#X connect 14 0 27 0;
#X connect 15 0 25 0;
#X connect 15 0 37 0;
#X connect 16 0 25 0;
#X connect 16 0 43 0;
#X connect 17 0 25 0;
#X connect 17 0 41 0;
#X connect 18 0 25 0;
#X connect 18 0 39 0;
#X connect 19 0 23 0;
#X connect 19 0 25 0;
#X connect 20 0 25 0;
#X connect 20 0 35 0;
#X connect 21 0 25 0;
#X connect 21 0 33 0;
#X connect 24 0 44 0;
#X connect 26 0 15 0;
#X connect 26 1 16 0;
#X connect 26 2 17 0;
#X connect 26 3 18 0;
#X connect 26 4 19 0;
#X connect 26 5 20 0;
#X connect 26 6 21 0;
#X connect 26 7 28 0;
#X connect 27 0 28 1;
#X connect 27 0 30 0;
#X connect 28 0 25 0;
#X connect 28 0 31 0;
#X connect 29 0 27 1;
#X connect 44 0 26 0;
#X restore 1061 213 pd scale_loader;
#X obj 1066 130 bng 19 250 50 0 empty empty empty 0 -10 0 12 #fcfcfc #000000 #000000;
#X obj 1060 99 moses 5;
#X obj 1076 406 spigot;
#X obj 1129 369 tgl 19 0 empty empty empty 0 -10 0 12 #fcfcfc #000000 #000000 0 1;
#X obj 949 355 -;
#X obj 951 382 abs;
#X floatatom 953 410 5 0 0 0 - - - 0;
#X obj 1132 343 <= 4;
#X floatatom 1062 242 5 0 0 0 - - - 0;
#X obj 1007 294 t b f;
#X floatatom 1078 557 5 0 0 0 - - - 0;
#X obj 502 416 spigot;
#X obj 555 379 tgl 19 0 empty empty empty 0 -10 0 12 #fcfcfc #000000 #000000 0 1;
#X obj 558 353 <= 4;
#X floatatom 504 567 5 0 0 0 - - - 0;
#X obj 527 117 r %-notes-1;
#X obj 816 115 r %-notes-1;
#X obj 1123 100 r %-notes-1;
#X obj 505 713 s random_note-2-2;
#X obj 765 714 s random_note-3-2;
#X obj 1062 706 s random_note-4-2;
#X floatatom 544 146 5 0 0 0 - - - 0;
#X msg 136 213 0;
#X obj 169 149 random 3;
#X obj 169 188 sel 0 1 2;
#X msg 165 244 2;
#X msg 208 269 4;
#N canvas 156 66 1218 804 scale_loader 0;
#X obj 651 563 r p1;
#X obj 706 501 r p2;
#X obj 758 450 r p3;
#X obj 809 382 r p4;
#X obj 860 332 r p5;
#X obj 903 291 r p6;
#X obj 918 250 r p7;
#X obj 615 564 f;
#X obj 676 501 f;
#X obj 727 451 f;
#X obj 778 382 f;
#X obj 830 332 f;
#X obj 871 290 f;
#X obj 887 250 f;
#X obj 498 276 bng 19 250 50 0 empty load empty 0 -10 0 12 #fcfcfc #000000 #000000;
#X obj 582 564 f;
#X obj 643 501 f;
#X obj 694 451 f;
#X obj 745 382 f;
#X obj 797 332 f;
#X obj 838 290 f;
#X obj 854 250 f;
#X floatatom 1015 362 2 0 0 0 - - - 0;
#X floatatom 982 362 2 0 0 0 - - - 0;
#X obj 592 119 inlet;
#X obj 597 686 outlet;
#X obj 591 201 sel 0 1 2 3 4 5 6 7, f 50;
#X obj 928 226 f;
#X obj 895 226 f;
#X obj 959 226 r p8;
#X floatatom 1015 262 2 0 0 0 - - - 0;
#X floatatom 982 262 2 0 0 0 - - - 0;
#X floatatom 1016 293 2 0 0 0 - - - 0;
#X floatatom 983 293 2 0 0 0 - - - 0;
#X floatatom 1013 328 2 0 0 0 - - - 0;
#X floatatom 980 328 2 0 0 0 - - - 0;
#X floatatom 1008 565 2 0 0 0 - - - 0;
#X floatatom 975 565 2 0 0 0 - - - 0;
#X floatatom 1012 425 2 0 0 0 - - - 0;
#X floatatom 979 425 2 0 0 0 - - - 0;
#X floatatom 1013 456 2 0 0 0 - - - 0;
#X floatatom 980 456 2 0 0 0 - - - 0;
#X floatatom 1006 531 2 0 0 0 - - - 0;
#X floatatom 973 531 2 0 0 0 - - - 0;
#X floatatom 596 153 5 0 0 0 - - - 0;
#X connect 0 0 7 1;
#X connect 1 0 8 1;
#X connect 2 0 9 1;
#X connect 3 0 10 1;
#X connect 4 0 11 1;
#X connect 5 0 12 1;
#X connect 6 0 13 1;
#X connect 7 0 15 1;
#X connect 7 0 36 0;
#X connect 8 0 16 1;
#X connect 8 0 42 0;
#X connect 9 0 17 1;
#X connect 9 0 40 0;
#X connect 10 0 18 1;
#X connect 10 0 38 0;
#X connect 11 0 19 1;
#X connect 11 0 22 0;
#X connect 12 0 20 1;
#X connect 12 0 34 0;
#X connect 13 0 21 1;
#X connect 13 0 32 0;
#X connect 14 0 7 0;
#X connect 14 0 8 0;
#X connect 14 0 9 0;
#X connect 14 0 10 0;
#X connect 14 0 11 0;
#X connect 14 0 12 0;
#X connect 14 0 13 0;
#X connect 14 0 27 0;
#X connect 15 0 25 0;
#X connect 15 0 37 0;
#X connect 16 0 25 0;
#X connect 16 0 43 0;
#X connect 17 0 25 0;
#X connect 17 0 41 0;
#X connect 18 0 25 0;
#X connect 18 0 39 0;
#X connect 19 0 23 0;
#X connect 19 0 25 0;
#X connect 20 0 25 0;
#X connect 20 0 35 0;
#X connect 21 0 25 0;
#X connect 21 0 33 0;
#X connect 24 0 44 0;
#X connect 26 0 15 0;
#X connect 26 1 16 0;
#X connect 26 2 17 0;
#X connect 26 3 18 0;
#X connect 26 4 19 0;
#X connect 26 5 20 0;
#X connect 26 6 21 0;
#X connect 26 7 28 0;
#X connect 27 0 28 1;
#X connect 27 0 30 0;
#X connect 28 0 25 0;
#X connect 28 0 31 0;
#X connect 29 0 27 1;
#X connect 44 0 26 0;
#X restore 115 324 pd scale_loader;
#X obj 260 473 s random_note-1-2;
#X connect 0 0 9 0;
#X connect 0 0 61 0;
#X connect 1 0 2 0;
#X connect 2 0 4 0;
#X connect 2 0 15 0;
#X connect 2 0 30 0;
#X connect 2 0 56 0;
#X connect 3 0 6 0;
#X connect 4 0 8 0;
#X connect 5 0 3 0;
#X connect 6 0 12 0;
#X connect 7 0 5 0;
#X connect 8 0 7 0;
#X connect 9 0 10 0;
#X connect 10 0 11 0;
#X connect 11 0 46 0;
#X connect 12 0 13 0;
#X connect 12 0 44 0;
#X connect 13 0 9 0;
#X connect 13 1 9 1;
#X connect 14 0 17 0;
#X connect 15 0 19 0;
#X connect 16 0 14 0;
#X connect 17 0 26 0;
#X connect 18 0 16 0;
#X connect 19 0 18 0;
#X connect 20 0 28 0;
#X connect 21 0 20 1;
#X connect 22 0 23 0;
#X connect 23 0 24 0;
#X connect 24 0 25 0;
#X connect 25 0 21 0;
#X connect 26 0 27 0;
#X connect 26 0 20 0;
#X connect 27 0 22 0;
#X connect 27 1 22 1;
#X connect 28 0 37 0;
#X connect 28 0 52 0;
#X connect 29 0 32 0;
#X connect 30 0 34 0;
#X connect 31 0 29 0;
#X connect 32 0 41 0;
#X connect 33 0 31 0;
#X connect 34 0 33 0;
#X connect 35 0 43 0;
#X connect 36 0 35 1;
#X connect 37 0 38 0;
#X connect 38 0 39 0;
#X connect 39 0 40 0;
#X connect 40 0 36 0;
#X connect 41 0 42 0;
#X connect 41 0 35 0;
#X connect 42 0 37 0;
#X connect 42 1 37 1;
#X connect 43 0 53 0;
#X connect 44 0 47 0;
#X connect 45 0 44 1;
#X connect 46 0 45 0;
#X connect 47 0 22 0;
#X connect 47 0 51 0;
#X connect 48 0 8 1;
#X connect 48 0 54 0;
#X connect 49 0 19 1;
#X connect 50 0 34 1;
#X connect 55 0 60 0;
#X connect 56 0 57 0;
#X connect 57 0 55 0;
#X connect 57 1 58 0;
#X connect 57 2 59 0;
#X connect 58 0 60 0;
#X connect 59 0 60 0;
#X connect 60 0 0 0;
#X restore 88 -6 pd note_player;
#X obj 254 -299 r random_note-2-2;
#X obj 389 -297 r random_note-3-2;
#X obj 512 -300 r random_note-4-2;
#X obj 660 -318 r %-rests-2;
#X obj -142 -992 r 1-tempo;
#X obj 419 -61 r %-velo-1-2;
#X obj 495 -42 r velocity-high-1-2;
#X obj 514 30 s current_velo-1-2;
#X obj 668 21 r velocity-low-1-2;
#X obj 242 -42 r root-2;
#X obj 82 77 r grand;
#X obj 150 75 r m2;
#X obj 362 74 noteout 2;
#X obj 143 -277 r random_note-1-2;
#X obj 123 -387 random 9;
#X obj 123 -362 moses 1;
#X connect 0 0 20 0;
#X connect 1 0 70 0;
#X connect 2 0 13 0;
#X connect 3 0 14 0;
#X connect 4 0 15 0;
#X connect 5 0 16 0;
#X connect 7 0 55 0;
#X connect 8 0 12 0;
#X connect 8 0 23 1;
#X connect 9 0 10 0;
#X connect 10 0 12 0;
#X connect 10 1 12 1;
#X connect 11 0 24 1;
#X connect 12 0 11 0;
#X connect 13 0 9 0;
#X connect 14 0 9 0;
#X connect 15 0 9 0;
#X connect 16 0 9 0;
#X connect 17 0 23 0;
#X connect 17 0 24 0;
#X connect 17 0 71 0;
#X connect 18 0 0 0;
#X connect 19 0 77 0;
#X connect 20 0 19 0;
#X connect 21 0 26 0;
#X connect 23 0 21 0;
#X connect 23 0 18 0;
#X connect 24 0 7 0;
#X connect 24 0 58 0;
#X connect 26 0 27 0;
#X connect 26 0 59 0;
#X connect 27 0 26 1;
#X connect 29 0 39 0;
#X connect 30 0 33 0;
#X connect 31 0 34 0;
#X connect 32 0 35 0;
#X connect 33 0 68 0;
#X connect 34 0 68 0;
#X connect 35 0 68 0;
#X connect 36 0 35 1;
#X connect 37 0 34 1;
#X connect 38 0 33 1;
#X connect 39 0 68 0;
#X connect 40 0 39 1;
#X connect 41 0 48 0;
#X connect 42 0 49 0;
#X connect 43 0 48 0;
#X connect 44 0 50 0;
#X connect 45 0 51 0;
#X connect 46 0 48 0;
#X connect 47 0 48 0;
#X connect 48 0 54 0;
#X connect 49 0 43 0;
#X connect 49 1 30 0;
#X connect 50 0 46 0;
#X connect 50 1 31 0;
#X connect 51 0 47 0;
#X connect 51 1 32 0;
#X connect 53 0 67 0;
#X connect 53 0 78 0;
#X connect 54 0 93 0;
#X connect 54 1 93 1;
#X connect 55 0 56 0;
#X connect 55 0 57 0;
#X connect 56 0 55 1;
#X connect 57 0 63 0;
#X connect 59 0 61 0;
#X connect 60 0 54 2;
#X connect 61 0 28 0;
#X connect 62 0 64 0;
#X connect 63 0 62 0;
#X connect 64 0 95 0;
#X connect 64 1 42 0;
#X connect 64 2 44 0;
#X connect 64 3 45 0;
#X connect 65 0 1 0;
#X connect 66 0 8 0;
#X connect 68 0 69 0;
#X connect 69 0 53 0;
#X connect 69 1 53 1;
#X connect 70 0 2 0;
#X connect 70 1 3 0;
#X connect 70 2 4 0;
#X connect 70 3 5 0;
#X connect 71 0 72 0;
#X connect 72 0 62 0;
#X connect 72 0 28 0;
#X connect 72 0 26 1;
#X connect 72 0 55 1;
#X connect 73 0 54 1;
#X connect 73 0 88 0;
#X connect 74 0 75 0;
#X connect 75 0 73 0;
#X connect 77 0 65 0;
#X connect 78 0 54 0;
#X connect 79 0 78 1;
#X connect 81 0 38 0;
#X connect 82 0 37 0;
#X connect 83 0 36 0;
#X connect 84 0 49 1;
#X connect 84 0 50 1;
#X connect 84 0 51 1;
#X connect 84 0 52 0;
#X connect 84 0 96 1;
#X connect 85 0 17 0;
#X connect 86 0 73 1;
#X connect 87 0 73 2;
#X connect 89 0 73 3;
#X connect 90 0 53 0;
#X connect 90 0 76 0;
#X connect 91 0 79 0;
#X connect 92 0 79 0;
#X connect 94 0 40 0;
#X connect 95 0 96 0;
#X connect 96 0 41 0;
#X connect 96 1 29 0;
#X coords 0 -1 1 1 500 50 1 100 100;
#X restore 202 178 pd MELODY_2;
#X f 51;
#X obj 724 204 hradio 19 1 0 10 %-velo-1-2 empty empty 0 -10 0 12 #fcfcfc #000000 #000000 0;
#X floatatom 943 205 5 0 127 0 - - velocity-low-1-2 0;
#X floatatom 1000 205 5 0 127 0 - - velocity-high-1-2 0;
#X floatatom 1081 203 5 0 0 0 - current_velo-1-2 - 0;
#X text 1081 177 current velo;
#N canvas 957 270 450 300 melo-1 0;
#X obj 138 219 hradio 19 1 0 10 %-notes empty empty 0 -10 0 12 #fcfcfc #000000 #000000 0;
#X floatatom 138 243 5 0 0 0 - - - 0;
#X obj 137 292 hradio 19 1 0 10 %-rests empty empty 0 -10 0 12 #fcfcfc #000000 #000000 0;
#X floatatom 137 316 5 0 0 0 - - - 0;
#X obj 137 145 hradio 19 1 0 3 octave empty empty 0 -10 0 12 #fcfcfc #000000 #000000 0;
#X text 137 123 OCTAVE;
#X text 128 172 up;
#X text 182 173 down;
#X text 136 197 percentage of notes randomization (melo1);
#X text 134 267 percentage of rests randomization (melo1);
#X connect 0 0 1 0;
#X connect 2 0 3 0;
#X coords 0 -1 1 1 350 250 1 100 100;
#X restore 313 365 pd melo-1;
#N canvas 498 535 450 300 melo-2 0;
#X obj 141 220 hradio 19 1 0 10 %-notes-1 empty empty 0 -10 0 12 #fcfcfc #000000 #000000 0;
#X floatatom 141 244 5 0 0 0 - - - 0;
#X obj 140 293 hradio 19 1 0 10 %-rests-2 empty empty 0 -10 0 12 #fcfcfc #000000 #000000 0;
#X floatatom 140 317 5 0 0 0 - - - 0;
#X obj 140 146 hradio 19 1 0 3 octave-2 empty empty 0 -10 0 12 #fcfcfc #000000 #000000 0;
#X text 140 124 OCTAVE;
#X text 131 173 up;
#X text 185 174 down;
#X text 137 198 percentage of notes randomization (melo2);
#X text 137 268 percentage of rests randomization (melo2);
#X connect 0 0 1 0;
#X connect 2 0 3 0;
#X coords 0 -1 1 1 350 250 1 100 100;
#X restore 681 365 pd melo-2;
#N canvas 562 52 908 817 orch 0;
#X obj 132 275 tgl 40 0 empty empty empty 0 -10 0 12 #fcfcfc #000000 #000000 0 1;
#X obj 143 355 metro;
#X obj 144 510 + 1;
#X floatatom 145 536 5 0 0 0 - - - 0;
#X obj 143 414 random 9;
#X obj 222 280 r metro;
#X obj 142 462 bng 19 250 50 0 empty empty empty 0 -10 0 12 #fcfcfc #000000 #000000;
#X obj 141 383 bng 19 250 50 0 empty empty empty 0 -10 0 12 #fcfcfc #000000 #000000;
#X msg 65 624 \; m1 1 \; m2 1 \; b 1 \; t 1 \; a 1 \;;
#X msg 130 624 \; m1 1 \; m2 1 \; b 0 \; t 0 \; a 0 \;;
#X msg 262 624 \; m1 1 \; m2 1 \; b 1 \; t 1 \; a 0 \;;
#X msg 328 625 \; m1 1 \; m2 0 \; b 0 \; t 0 \; a 0 \;;
#X msg 62 726 \; m1 0 \; m2 1 \; b 0 \; t 0 \; a 0 \;;
#X msg 129 726 \; m1 0 \; m2 1 \; b 1 \; t 1 \; a 1 \;;
#X msg 57 833 \; m1 0 \; m2 0 \; b 1 \; t 0 \; a 0 \;;
#X msg 124 833 \; m1 0 \; m2 0 \; b 1 \; t 1 \; a 1 \;;
#X msg 187 830 \; m1 0 \; m2 0 \; b 1 \; t 1 \; a 0 \;;
#X msg 258 831 \; m1 0 \; m2 0 \; b 1 \; t 0 \; a 1 \;;
#X obj 144 486 random 12;
#X obj 144 562 sel 1 2 3 4 5 6 7 8 9 10 11 12, f 38;
#X msg 197 624 \; m1 1 \; m2 1 \; b 1 \; t 0 \; a 0 \;;
#X msg 192 723 \; m1 0 \; m2 1 \; b 1 \; t 0 \; a 1 \;;
#X obj 221 305 * 4;
#X floatatom 221 329 5 0 0 0 - - - 0;
#X text 117 250 orchestra;
#X obj 128 162 tgl 40 0 empty empty empty 0 -10 0 12 #fcfcfc #000000 #000000 0 1;
#X obj 412 339 metro;
#X floatatom 415 493 5 0 0 0 - - - 0;
#X obj 412 398 random 9;
#X obj 491 264 r metro;
#X obj 411 446 bng 19 250 50 0 empty empty empty 0 -10 0 12 #fcfcfc #000000 #000000;
#X obj 410 367 bng 19 250 50 0 empty empty empty 0 -10 0 12 #fcfcfc #000000 #000000;
#X obj 490 289 * 4;
#X floatatom 490 313 5 0 0 0 - - - 0;
#X obj 412 422 moses 3;
#X obj 415 516 s rand-scale;
#X obj 413 470 random 8;
#X text 113 141 scale-rand;
#X obj 238 371 sel 0;
#X msg 242 407 1;
#X obj 143 438 moses 4;
#X obj 280 155 r grand;
#X msg 280 179 0;
#X connect 0 0 1 0;
#X connect 0 0 38 0;
#X connect 1 0 7 0;
#X connect 2 0 3 0;
#X connect 3 0 19 0;
#X connect 4 0 40 0;
#X connect 5 0 22 0;
#X connect 6 0 18 0;
#X connect 7 0 4 0;
#X connect 18 0 2 0;
#X connect 19 0 8 0;
#X connect 19 1 9 0;
#X connect 19 2 20 0;
#X connect 19 3 10 0;
#X connect 19 4 11 0;
#X connect 19 5 12 0;
#X connect 19 6 13 0;
#X connect 19 7 21 0;
#X connect 19 8 14 0;
#X connect 19 9 15 0;
#X connect 19 10 16 0;
#X connect 19 11 17 0;
#X connect 22 0 23 0;
#X connect 23 0 1 1;
#X connect 25 0 26 0;
#X connect 26 0 31 0;
#X connect 27 0 35 0;
#X connect 28 0 34 0;
#X connect 29 0 32 0;
#X connect 30 0 36 0;
#X connect 31 0 28 0;
#X connect 32 0 33 0;
#X connect 33 0 26 1;
#X connect 34 0 30 0;
#X connect 36 0 27 0;
#X connect 38 0 39 0;
#X connect 39 0 19 0;
#X connect 40 0 6 0;
#X connect 41 0 42 0;
#X connect 42 0 25 0;
#X connect 42 0 0 0;
#X coords 0 -1 1 1 100 250 2 100 100;
#X restore 1043 366 pd orch;
#X text 723 106 percentage of velo randomization (melo1);
#X text 724 177 percentage of velo randomization (melo2);
#X text 724 269 percentage of velo randomization (harmony);
#N canvas 310 37 1160 832 poem 0;
#X obj 0 -584 r zero;
#X obj 0 -560 f;
#X obj 51 -561 + 1;
#X floatatom 0 -527 5 0 0 0 - - - 0;
#X obj -1 -476 + 1;
#X floatatom -1 -436 5 0 0 0 - - - 0;
#X symbolatom 114 116 65 0 0 0 - - - 24;
#X obj 2 -397 sel 1 2 3 4 5 6 7 8 9 10 11 12 13 14;
#X msg 7 -323 symbol I_mutter_with_a_resigned_sigh;
#X msg 5 -355 symbol OK_Computer;
#X msg 8 -226 symbol In_this_techno-circus_I'm_just_trying_to_believe;
#X msg 10 -194 symbol From_dawn_till_dusk_I'm_trapped_in_its_grip;
#X msg 13 -57 symbol In_this_digital_jungle_I'm_just_a_paranoid_android;
#X msg 15 -26 symbol Ok_Computer;
#X msg 18 8 symbol Ok_Computer;
#X msg 16 45 symbol Ok_Computer;
#X msg 19 79 symbol Ok_Computer;
#X obj 98 -545 tgl 19 0 empty grand empty 0 -10 0 12 #fcfcfc #000000 #000000 0 1;
#X msg 98 -521 1;
#X msg 9 -160 symbol OK_Computer;
#X msg 8 -257 symbol Commands_flying_like_confetti_on_New_Year's_Eve;
#X obj -1 -500 mod 14;
#X msg 6 -289 symbol In_the_glow_of_screens_where_dreams_go_to_die;
#X msg 11 -128 symbol I_groan_ready_to_flip;
#X msg 14 -90 symbol Each_click_each_tap_a_step_into_the_void;
#X connect 0 0 1 0;
#X connect 1 0 2 0;
#X connect 1 0 3 0;
#X connect 2 0 1 1;
#X connect 3 0 21 0;
#X connect 4 0 5 0;
#X connect 5 0 7 0;
#X connect 7 0 9 0;
#X connect 7 1 8 0;
#X connect 7 2 22 0;
#X connect 7 3 20 0;
#X connect 7 4 10 0;
#X connect 7 5 11 0;
#X connect 7 6 19 0;
#X connect 7 7 23 0;
#X connect 7 8 24 0;
#X connect 7 9 12 0;
#X connect 7 10 13 0;
#X connect 7 11 14 0;
#X connect 7 12 15 0;
#X connect 7 13 16 0;
#X connect 8 0 6 0;
#X connect 9 0 6 0;
#X connect 10 0 6 0;
#X connect 11 0 6 0;
#X connect 12 0 6 0;
#X connect 13 0 6 0;
#X connect 14 0 6 0;
#X connect 15 0 6 0;
#X connect 16 0 6 0;
#X connect 17 0 18 0;
#X connect 18 0 5 0;
#X connect 19 0 6 0;
#X connect 20 0 6 0;
#X connect 21 0 4 0;
#X connect 22 0 6 0;
#X connect 23 0 6 0;
#X connect 24 0 6 0;
#X coords 0 -1 1 1 1000 60 2 100 100;
#X restore 127 631 pd poem;
#X text 564 52 OK \, COMPUTER;
