#N canvas 366 408 990 513 12;
#X obj 110 125 tgl 100 0 empty empty empty 0 -10 0 12 #faff00 #000000 #000000 0 1;
#X obj 21 326 bng 19 250 50 0 empty empty empty 0 -10 0 12 #fcfcfc #000000 #000000;
#X obj 20 300 metro 100;
#X obj 140 270 bng 20 250 50 0 empty trigger empty 0 -10 0 12 #faff00 #000000 #000000;
#X obj 142 302 s randomized;
#X obj 20 353 s pulse;
#X obj 98 348 r metro;
#X connect 0 0 2 0;
#X connect 1 0 5 0;
#X connect 2 0 1 0;
#X connect 3 0 4 0;
#X connect 6 0 2 1;
#X coords 0 0 1 1 120 130 1 100 100;
