#N canvas 848 136 601 601 12;
#X obj 161 456 r p1;
#X obj 216 394 r p2;
#X obj 268 343 r p3;
#X obj 319 275 r p4;
#X obj 370 225 r p5;
#X obj 413 184 r p6;
#X obj 428 143 r p7;
#X obj 125 457 f;
#X obj 186 394 f;
#X obj 237 344 f;
#X obj 288 275 f;
#X obj 340 225 f;
#X obj 381 183 f;
#X obj 397 143 f;
#X obj 8 169 bng 19 250 50 0 empty load empty 0 -10 0 12 #fcfcfc #000000 #000000;
#X obj 92 457 f;
#X obj 153 394 f;
#X obj 204 344 f;
#X obj 255 275 f;
#X obj 307 225 f;
#X obj 348 183 f;
#X obj 364 143 f;
#X floatatom 525 255 2 0 0 0 - - - 0;
#X floatatom 492 255 2 0 0 0 - - - 0;
#X obj 99 -15 inlet;
#X obj 107 579 outlet;
#X obj 438 119 f;
#X obj 405 119 f;
#X obj 469 119 r p8;
#X floatatom 525 155 2 0 0 0 - - - 0;
#X floatatom 492 155 2 0 0 0 - - - 0;
#X floatatom 526 186 2 0 0 0 - - - 0;
#X floatatom 493 186 2 0 0 0 - - - 0;
#X floatatom 523 221 2 0 0 0 - - - 0;
#X floatatom 490 221 2 0 0 0 - - - 0;
#X floatatom 518 458 2 0 0 0 - - - 0;
#X floatatom 485 458 2 0 0 0 - - - 0;
#X floatatom 522 318 2 0 0 0 - - - 0;
#X floatatom 489 318 2 0 0 0 - - - 0;
#X floatatom 523 349 2 0 0 0 - - - 0;
#X floatatom 490 349 2 0 0 0 - - - 0;
#X floatatom 516 424 2 0 0 0 - - - 0;
#X floatatom 483 424 2 0 0 0 - - - 0;
#X floatatom 103 19 5 0 0 0 - - - 0;
#X obj 115 45 + 1, f 4;
#X obj 104 96 sel 1 2 3 4 5 6 7 8, f 50;
#X obj 115 69 mod 8;
#X connect 0 0 7 1;
#X connect 1 0 8 1;
#X connect 2 0 9 1;
#X connect 3 0 10 1;
#X connect 4 0 11 1;
#X connect 5 0 12 1;
#X connect 6 0 13 1;
#X connect 7 0 15 1;
#X connect 7 0 35 0;
#X connect 8 0 16 1;
#X connect 8 0 41 0;
#X connect 9 0 17 1;
#X connect 9 0 39 0;
#X connect 10 0 18 1;
#X connect 10 0 37 0;
#X connect 11 0 19 1;
#X connect 11 0 22 0;
#X connect 12 0 20 1;
#X connect 12 0 33 0;
#X connect 13 0 21 1;
#X connect 13 0 31 0;
#X connect 14 0 7 0;
#X connect 14 0 8 0;
#X connect 14 0 9 0;
#X connect 14 0 10 0;
#X connect 14 0 11 0;
#X connect 14 0 12 0;
#X connect 14 0 13 0;
#X connect 14 0 26 0;
#X connect 15 0 25 0;
#X connect 15 0 36 0;
#X connect 16 0 25 0;
#X connect 16 0 42 0;
#X connect 17 0 25 0;
#X connect 17 0 40 0;
#X connect 18 0 25 0;
#X connect 18 0 38 0;
#X connect 19 0 23 0;
#X connect 19 0 25 0;
#X connect 20 0 25 0;
#X connect 20 0 34 0;
#X connect 21 0 25 0;
#X connect 21 0 32 0;
#X connect 24 0 43 0;
#X connect 26 0 27 1;
#X connect 26 0 29 0;
#X connect 27 0 25 0;
#X connect 27 0 30 0;
#X connect 28 0 26 1;
#X connect 43 0 44 0;
#X connect 44 0 46 0;
#X connect 45 0 15 0;
#X connect 45 1 16 0;
#X connect 45 2 17 0;
#X connect 45 3 18 0;
#X connect 45 4 19 0;
#X connect 45 5 20 0;
#X connect 45 6 21 0;
#X connect 45 7 27 0;
#X connect 46 0 45 0;
