#N canvas 776 92 1920 1052 12;
#X floatatom 111 457 5 0 0 0 - - - 0;
#X obj 112 425 /;
#X floatatom 106 376 5 0 0 0 - - - 0;
#X obj 106 399 t b f;
#X msg 48 390 60000;
#X obj 465 29 random 9;
#X obj 465 63 moses 2;
#X obj 438 187 bng 19 250 50 0 empty empty empty 0 -10 0 12 #00ff04 #000000 #000000;
#X obj 527 186 bng 19 250 50 0 empty empty empty 0 -10 0 12 #ff0400 #000000 #000000;
#X floatatom 402 53 5 0 0 0 - - - 0;
#X obj 468 -3 r metro_dice;
#X floatatom 602 67 5 0 0 0 - - - 0;
#X obj 593 28 r %-pulse;
#X obj 111 487 s metro;
#X obj 141 254 r range-low;
#X floatatom 51 33 5 0 0 0 - - - 0;
#X obj 289 322 r range-high;
#X floatatom 289 346 5 0 0 0 - - - 0;
#X obj 299 426 -;
#X obj 321 373 r range-low;
#X obj 321 397 t b f;
#X floatatom 299 455 5 0 0 0 - - - 0;
#X obj 112 350 +;
#X obj 441 222 random;
#X obj 144 305 t b f;
#X obj 43 343 loadbang;
#X obj 47 367 bng 19 250 50 0 empty empty empty 0 -10 0 12 #fcfcfc #000000 #000000;
#X floatatom 436 139 5 0 0 0 - - range-low 0;
#X floatatom 508 139 5 0 0 0 - - range-high 0;
#X text 481 140 --;
#X text 435 117 tempo range;
#X text 16 6 current BPM;
#X connect 0 0 13 0;
#X connect 1 0 0 0;
#X connect 2 0 3 0;
#X connect 3 0 1 0;
#X connect 3 1 1 1;
#X connect 4 0 1 0;
#X connect 5 0 6 0;
#X connect 5 0 9 0;
#X connect 6 0 7 0;
#X connect 6 1 8 0;
#X connect 7 0 23 0;
#X connect 10 0 5 0;
#X connect 12 0 6 1;
#X connect 12 0 11 0;
#X connect 14 0 15 0;
#X connect 15 0 24 0;
#X connect 16 0 17 0;
#X connect 17 0 18 0;
#X connect 18 0 21 0;
#X connect 19 0 20 0;
#X connect 20 0 18 0;
#X connect 20 1 18 1;
#X connect 21 0 23 1;
#X connect 22 0 2 0;
#X connect 24 0 22 0;
#X connect 24 1 22 1;
#X connect 25 0 26 0;
#X connect 26 0 4 0;
#X coords 0 -1 1 1 140 60 2 0 0;
