#N canvas 231 146 607 536 12;
#X floatatom 106 376 5 0 127 0 - - - 0;
#X floatatom 313 227 5 0 0 0 - - - 0;
#X floatatom 276 66 5 0 0 0 - - - 0;
#X obj 343 124 -;
#X obj 403 51 t b f;
#X floatatom 343 153 5 0 0 0 - - - 0;
#X obj 112 350 +;
#X obj 111 230 random;
#X obj 311 252 t b f;
#X obj 114 112 random 9;
#X obj 111 82 bng 19 250 50 0 empty empty empty 0 -10 0 12 #fcfcfc #000000 #000000;
#X obj 107 404 outlet;
#X obj 114 146 moses;
#X obj 112 190 bng 19 250 50 0 empty empty empty 0 -10 0 12 #fcfcfc #000000 #000000;
#X obj 178 57 inlet;
#X obj 109 51 inlet;
#X obj 479 19 inlet;
#X obj 273 33 inlet;
#X text 101 27 bang;
#X text 173 35 %;
#X text 267 12 high;
#X text 473 0 low;
#X connect 0 0 11 0;
#X connect 1 0 8 0;
#X connect 2 0 3 0;
#X connect 3 0 5 0;
#X connect 4 0 3 0;
#X connect 4 1 3 1;
#X connect 5 0 7 1;
#X connect 6 0 0 0;
#X connect 7 0 6 0;
#X connect 8 0 6 0;
#X connect 8 1 6 1;
#X connect 9 0 12 0;
#X connect 10 0 9 0;
#X connect 12 0 13 0;
#X connect 13 0 7 0;
#X connect 14 0 12 1;
#X connect 15 0 10 0;
#X connect 16 0 4 0;
#X connect 16 0 1 0;
#X connect 17 0 2 0;
